M48
; DRILL file {KiCad 8.0.1} date 2024-04-20T14:30:18+0100
; FORMAT={-:-/ absolute / inch / decimal}
; #@! TF.CreationDate,2024-04-20T14:30:18+01:00
; #@! TF.GenerationSoftware,Kicad,Pcbnew,8.0.1
; #@! TF.FileFunction,Plated,1,2,PTH
FMAT,2
INCH
; #@! TA.AperFunction,Plated,PTH,ComponentDrill
T1C0.0315
; #@! TA.AperFunction,Plated,PTH,ComponentDrill
T2C0.0354
; #@! TA.AperFunction,Plated,PTH,ComponentDrill
T3C0.0394
; #@! TA.AperFunction,Plated,PTH,ComponentDrill
T4C0.0402
; #@! TA.AperFunction,Plated,PTH,ComponentDrill
T5C0.0591
; #@! TA.AperFunction,Plated,PTH,ComponentDrill
T6C0.1024
%
G90
G05
T1
X3.5354Y-3.9469
X3.5354Y-4.1654
X3.5354Y-4.3937
X3.5354Y-4.5906
X3.8354Y-3.9469
X3.8354Y-4.1654
X3.8354Y-4.3937
X3.8354Y-4.5906
X4.2685Y-3.9469
X4.2685Y-4.2618
X4.2685Y-4.5768
X4.2685Y-4.8917
X4.3685Y-3.9469
X4.3685Y-4.2618
X4.3685Y-4.5768
X4.3685Y-4.8917
X4.4685Y-3.9469
X4.4685Y-4.2618
X4.4685Y-4.5768
X4.4685Y-4.8917
X4.6063Y-2.8898
X4.6063Y-2.9882
X4.6063Y-3.2638
X4.6063Y-3.3622
X4.7787Y-2.8937
X4.7787Y-3.0453
X4.7787Y-3.2047
X4.7787Y-3.3622
X5.0787Y-2.8937
X5.0787Y-3.0453
X5.0787Y-3.2047
X5.0787Y-3.3622
X6.1024Y-2.9709
X6.1024Y-3.0709
X6.1024Y-3.1709
X6.1024Y-3.2709
T2
X3.9945Y-3.9469
X3.9945Y-4.2618
X3.9945Y-4.5768
X3.9945Y-4.8917
X4.0945Y-3.9469
X4.0945Y-4.2618
X4.0945Y-4.5768
X4.0945Y-4.8917
T3
X5.2559Y-3.0315
X5.2559Y-3.1299
X5.2559Y-3.2283
X5.8268Y-3.0315
X5.8268Y-3.2283
T4
X7.8827Y-3.0315
X7.8827Y-3.1315
X7.8827Y-3.2315
X7.8827Y-3.3315
X7.8827Y-3.4315
X7.8827Y-3.5315
X7.8827Y-3.6315
X7.8827Y-3.7315
X7.8827Y-3.8315
X7.8827Y-3.9315
X7.8827Y-4.0315
X7.8827Y-4.1315
X7.8827Y-4.2315
X7.8827Y-4.3315
X7.8827Y-4.4315
X7.8827Y-4.5315
X7.8827Y-4.6315
X7.8827Y-4.7315
X7.8827Y-4.8315
X7.8827Y-4.9315
X8.5827Y-3.0315
X8.5827Y-3.1315
X8.5827Y-3.2315
X8.5827Y-3.3315
X8.5827Y-3.4315
X8.5827Y-3.5315
X8.5827Y-3.6315
X8.5827Y-3.7315
X8.5827Y-3.8315
X8.5827Y-3.9315
X8.5827Y-4.0315
X8.5827Y-4.1315
X8.5827Y-4.2315
X8.5827Y-4.3315
X8.5827Y-4.4315
X8.5827Y-4.5315
X8.5827Y-4.6315
X8.5827Y-4.7315
X8.5827Y-4.8315
X8.5827Y-4.9315
T5
X3.9098Y-3.3173
X4.1598Y-3.2173
X4.7713Y-3.837
X4.7713Y-4.585
X5.0213Y-3.737
X5.0213Y-4.485
X5.5193Y-3.837
X5.5193Y-4.585
X5.7693Y-3.737
X5.7693Y-4.485
X6.2673Y-3.837
X6.2673Y-4.585
X6.5173Y-3.737
X6.5173Y-4.485
X7.0154Y-3.837
X7.0154Y-4.585
X7.2654Y-3.737
X7.2654Y-4.485
T6
X5.5512Y-2.9094
X5.5512Y-3.3504
M30
