M48
; DRILL file {KiCad 8.0.1} date 2024-04-20T14:30:18+0100
; FORMAT={-:-/ absolute / inch / decimal}
; #@! TF.CreationDate,2024-04-20T14:30:18+01:00
; #@! TF.GenerationSoftware,Kicad,Pcbnew,8.0.1
; #@! TF.FileFunction,NonPlated,1,2,NPTH
FMAT,2
INCH
; #@! TA.AperFunction,NonPlated,NPTH,ComponentDrill
T1C0.0689
; #@! TA.AperFunction,NonPlated,NPTH,ComponentDrill
T2C0.1575
%
G90
G05
T1
X3.8598Y-3.4173
X4.2598Y-3.4173
X4.7213Y-3.937
X4.7213Y-4.685
X5.1213Y-3.937
X5.1213Y-4.685
X5.4693Y-3.937
X5.4693Y-4.685
X5.8693Y-3.937
X5.8693Y-4.685
X6.2173Y-3.937
X6.2173Y-4.685
X6.6173Y-3.937
X6.6173Y-4.685
X6.9654Y-3.937
X6.9654Y-4.685
X7.3654Y-3.937
X7.3654Y-4.685
T2
X4.0598Y-3.4173
X4.9213Y-3.937
X4.9213Y-4.685
X5.6693Y-3.937
X5.6693Y-4.685
X6.4173Y-3.937
X6.4173Y-4.685
X7.1654Y-3.937
X7.1654Y-4.685
M30
