%TF.GenerationSoftware,KiCad,Pcbnew,8.0.1*%
%TF.CreationDate,2024-04-20T14:30:11+01:00*%
%TF.ProjectId,macropad-rev1,6d616372-6f70-4616-942d-726576312e6b,r1*%
%TF.SameCoordinates,Original*%
%TF.FileFunction,Soldermask,Bot*%
%TF.FilePolarity,Negative*%
%FSLAX46Y46*%
G04 Gerber Fmt 4.6, Leading zero omitted, Abs format (unit mm)*
G04 Created by KiCad (PCBNEW 8.0.1) date 2024-04-20 14:30:11*
%MOMM*%
%LPD*%
G01*
G04 APERTURE LIST*
G04 Aperture macros list*
%AMRoundRect*
0 Rectangle with rounded corners*
0 $1 Rounding radius*
0 $2 $3 $4 $5 $6 $7 $8 $9 X,Y pos of 4 corners*
0 Add a 4 corners polygon primitive as box body*
4,1,4,$2,$3,$4,$5,$6,$7,$8,$9,$2,$3,0*
0 Add four circle primitives for the rounded corners*
1,1,$1+$1,$2,$3*
1,1,$1+$1,$4,$5*
1,1,$1+$1,$6,$7*
1,1,$1+$1,$8,$9*
0 Add four rect primitives between the rounded corners*
20,1,$1+$1,$2,$3,$4,$5,0*
20,1,$1+$1,$4,$5,$6,$7,0*
20,1,$1+$1,$6,$7,$8,$9,0*
20,1,$1+$1,$8,$9,$2,$3,0*%
G04 Aperture macros list end*
%ADD10C,1.750000*%
%ADD11C,4.000000*%
%ADD12C,3.500000*%
%ADD13C,1.800000*%
%ADD14R,1.800000X1.800000*%
%ADD15R,2.000000X2.000000*%
%ADD16C,2.000000*%
%ADD17C,1.600000*%
%ADD18O,1.600000X1.600000*%
%ADD19RoundRect,0.250000X0.650000X0.650000X-0.650000X0.650000X-0.650000X-0.650000X0.650000X-0.650000X0*%
%ADD20RoundRect,0.281250X-0.618750X-0.618750X0.618750X-0.618750X0.618750X0.618750X-0.618750X0.618750X0*%
%ADD21O,1.700000X1.700000*%
%ADD22R,1.700000X1.700000*%
G04 APERTURE END LIST*
D10*
%TO.C,SW5*%
X119920000Y-119000000D03*
D11*
X125000000Y-119000000D03*
D10*
X130080000Y-119000000D03*
D12*
X121190000Y-116460000D03*
X127540000Y-113920000D03*
%TD*%
D13*
%TO.C,C2*%
X117000000Y-75900000D03*
X117000000Y-73400000D03*
%TD*%
D14*
%TO.C,Q1*%
X113500000Y-124250000D03*
D13*
X110960000Y-124250000D03*
X108420000Y-124250000D03*
%TD*%
D10*
%TO.C,SW8*%
X176920000Y-119000000D03*
D11*
X182000000Y-119000000D03*
D10*
X187080000Y-119000000D03*
D12*
X178190000Y-116460000D03*
X184540000Y-113920000D03*
%TD*%
D15*
%TO.C,D1*%
X104000000Y-124250000D03*
D16*
X101460000Y-124250000D03*
%TD*%
D15*
%TO.C,D3*%
X104000000Y-108250000D03*
D16*
X101460000Y-108250000D03*
%TD*%
D10*
%TO.C,SW2*%
X138920000Y-100000000D03*
D11*
X144000000Y-100000000D03*
D10*
X149080000Y-100000000D03*
D12*
X140190000Y-97460000D03*
X146540000Y-94920000D03*
%TD*%
D14*
%TO.C,Q3*%
X113500000Y-108250000D03*
D13*
X110960000Y-108250000D03*
X108420000Y-108250000D03*
%TD*%
D17*
%TO.C,R2*%
X97420000Y-111600000D03*
D18*
X89800000Y-111600000D03*
%TD*%
D10*
%TO.C,SW7*%
X157920000Y-119000000D03*
D11*
X163000000Y-119000000D03*
D10*
X168080000Y-119000000D03*
D12*
X159190000Y-116460000D03*
X165540000Y-113920000D03*
%TD*%
D14*
%TO.C,Q2*%
X113500000Y-116250000D03*
D13*
X110960000Y-116250000D03*
X108420000Y-116250000D03*
%TD*%
D17*
%TO.C,R3*%
X97420000Y-105800000D03*
D18*
X89800000Y-105800000D03*
%TD*%
D17*
%TO.C,R6*%
X129000000Y-73500000D03*
D18*
X121380000Y-73500000D03*
%TD*%
D14*
%TO.C,Q4*%
X113500000Y-100250000D03*
D13*
X110960000Y-100250000D03*
X108420000Y-100250000D03*
%TD*%
D17*
%TO.C,R8*%
X121380000Y-77350000D03*
D18*
X129000000Y-77350000D03*
%TD*%
D15*
%TO.C,D2*%
X104000000Y-116250000D03*
D16*
X101460000Y-116250000D03*
%TD*%
D17*
%TO.C,R1*%
X97420000Y-116600000D03*
D18*
X89800000Y-116600000D03*
%TD*%
D15*
%TO.C,D4*%
X104000000Y-100250000D03*
D16*
X101460000Y-100250000D03*
%TD*%
D10*
%TO.C,SW9*%
X98040000Y-86800000D03*
D11*
X103120000Y-86800000D03*
D10*
X108200000Y-86800000D03*
D12*
X99310000Y-84260000D03*
X105660000Y-81720000D03*
%TD*%
D17*
%TO.C,R7*%
X129000000Y-81400000D03*
D18*
X121380000Y-81400000D03*
%TD*%
D10*
%TO.C,SW1*%
X119920000Y-100000000D03*
D11*
X125000000Y-100000000D03*
D10*
X130080000Y-100000000D03*
D12*
X121190000Y-97460000D03*
X127540000Y-94920000D03*
%TD*%
D10*
%TO.C,SW3*%
X157920000Y-100000000D03*
D11*
X163000000Y-100000000D03*
D10*
X168080000Y-100000000D03*
D12*
X159190000Y-97460000D03*
X165540000Y-94920000D03*
%TD*%
D19*
%TO.C,U2*%
X155000000Y-83080000D03*
D13*
X155000000Y-80540000D03*
X155000000Y-78000000D03*
X155000000Y-75460000D03*
%TD*%
D20*
%TO.C,SW10*%
X133500000Y-77000000D03*
D13*
X133500000Y-82000000D03*
X133500000Y-79500000D03*
D16*
X148000000Y-77000000D03*
X148000000Y-82000000D03*
D11*
X141000000Y-73900000D03*
X141000000Y-85100000D03*
%TD*%
D17*
%TO.C,R4*%
X97420000Y-100250000D03*
D18*
X89800000Y-100250000D03*
%TD*%
D17*
%TO.C,R5*%
X129000000Y-85400000D03*
D18*
X121380000Y-85400000D03*
%TD*%
D13*
%TO.C,C1*%
X117000000Y-85400000D03*
X117000000Y-82900000D03*
%TD*%
D21*
%TO.C,U1*%
X200220000Y-77000000D03*
X200220000Y-79540000D03*
D22*
X200220000Y-82080000D03*
D21*
X200220000Y-84620000D03*
X200220000Y-87160000D03*
X200220000Y-89700000D03*
X200220000Y-92240000D03*
D22*
X200220000Y-94780000D03*
D21*
X200220000Y-97320000D03*
X200220000Y-99860000D03*
X200220000Y-102400000D03*
X200220000Y-104940000D03*
D22*
X200220000Y-107480000D03*
D21*
X200220000Y-110020000D03*
X200220000Y-112560000D03*
X200220000Y-115100000D03*
X200220000Y-117640000D03*
D22*
X200220000Y-120180000D03*
D21*
X200220000Y-122720000D03*
X200220000Y-125260000D03*
X218000000Y-125260000D03*
X218000000Y-122720000D03*
D22*
X218000000Y-120180000D03*
D21*
X218000000Y-117640000D03*
X218000000Y-115100000D03*
X218000000Y-112560000D03*
X218000000Y-110020000D03*
D22*
X218000000Y-107480000D03*
D21*
X218000000Y-104940000D03*
X218000000Y-102400000D03*
X218000000Y-99860000D03*
X218000000Y-97320000D03*
D22*
X218000000Y-94780000D03*
D21*
X218000000Y-92240000D03*
X218000000Y-89700000D03*
X218000000Y-87160000D03*
X218000000Y-84620000D03*
D22*
X218000000Y-82080000D03*
D21*
X218000000Y-79540000D03*
X218000000Y-77000000D03*
%TD*%
D10*
%TO.C,SW6*%
X138920000Y-119000000D03*
D11*
X144000000Y-119000000D03*
D10*
X149080000Y-119000000D03*
D12*
X140190000Y-116460000D03*
X146540000Y-113920000D03*
%TD*%
D10*
%TO.C,SW4*%
X176920000Y-100000000D03*
D11*
X182000000Y-100000000D03*
D10*
X187080000Y-100000000D03*
D12*
X178190000Y-97460000D03*
X184540000Y-94920000D03*
%TD*%
M02*
