%TF.GenerationSoftware,KiCad,Pcbnew,8.0.1*%
%TF.CreationDate,2024-04-20T14:30:11+01:00*%
%TF.ProjectId,macropad-rev1,6d616372-6f70-4616-942d-726576312e6b,r1*%
%TF.SameCoordinates,Original*%
%TF.FileFunction,Legend,Top*%
%TF.FilePolarity,Positive*%
%FSLAX46Y46*%
G04 Gerber Fmt 4.6, Leading zero omitted, Abs format (unit mm)*
G04 Created by KiCad (PCBNEW 8.0.1) date 2024-04-20 14:30:11*
%MOMM*%
%LPD*%
G01*
G04 APERTURE LIST*
%ADD10C,0.100000*%
%ADD11C,0.150000*%
%ADD12C,0.120000*%
G04 APERTURE END LIST*
D10*
X94200000Y-74000000D02*
G75*
G02*
X87800000Y-74000000I-3200000J0D01*
G01*
X87800000Y-74000000D02*
G75*
G02*
X94200000Y-74000000I3200000J0D01*
G01*
X94200000Y-125000000D02*
G75*
G02*
X87800000Y-125000000I-3200000J0D01*
G01*
X87800000Y-125000000D02*
G75*
G02*
X94200000Y-125000000I3200000J0D01*
G01*
X214200000Y-75000000D02*
G75*
G02*
X207800000Y-75000000I-3200000J0D01*
G01*
X207800000Y-75000000D02*
G75*
G02*
X214200000Y-75000000I3200000J0D01*
G01*
X214200000Y-125000000D02*
G75*
G02*
X207800000Y-125000000I-3200000J0D01*
G01*
X207800000Y-125000000D02*
G75*
G02*
X214200000Y-125000000I3200000J0D01*
G01*
X123566667Y-111309800D02*
X123709524Y-111357419D01*
X123709524Y-111357419D02*
X123947619Y-111357419D01*
X123947619Y-111357419D02*
X124042857Y-111309800D01*
X124042857Y-111309800D02*
X124090476Y-111262180D01*
X124090476Y-111262180D02*
X124138095Y-111166942D01*
X124138095Y-111166942D02*
X124138095Y-111071704D01*
X124138095Y-111071704D02*
X124090476Y-110976466D01*
X124090476Y-110976466D02*
X124042857Y-110928847D01*
X124042857Y-110928847D02*
X123947619Y-110881228D01*
X123947619Y-110881228D02*
X123757143Y-110833609D01*
X123757143Y-110833609D02*
X123661905Y-110785990D01*
X123661905Y-110785990D02*
X123614286Y-110738371D01*
X123614286Y-110738371D02*
X123566667Y-110643133D01*
X123566667Y-110643133D02*
X123566667Y-110547895D01*
X123566667Y-110547895D02*
X123614286Y-110452657D01*
X123614286Y-110452657D02*
X123661905Y-110405038D01*
X123661905Y-110405038D02*
X123757143Y-110357419D01*
X123757143Y-110357419D02*
X123995238Y-110357419D01*
X123995238Y-110357419D02*
X124138095Y-110405038D01*
X124471429Y-110357419D02*
X124709524Y-111357419D01*
X124709524Y-111357419D02*
X124900000Y-110643133D01*
X124900000Y-110643133D02*
X125090476Y-111357419D01*
X125090476Y-111357419D02*
X125328572Y-110357419D01*
X126185714Y-110357419D02*
X125709524Y-110357419D01*
X125709524Y-110357419D02*
X125661905Y-110833609D01*
X125661905Y-110833609D02*
X125709524Y-110785990D01*
X125709524Y-110785990D02*
X125804762Y-110738371D01*
X125804762Y-110738371D02*
X126042857Y-110738371D01*
X126042857Y-110738371D02*
X126138095Y-110785990D01*
X126138095Y-110785990D02*
X126185714Y-110833609D01*
X126185714Y-110833609D02*
X126233333Y-110928847D01*
X126233333Y-110928847D02*
X126233333Y-111166942D01*
X126233333Y-111166942D02*
X126185714Y-111262180D01*
X126185714Y-111262180D02*
X126138095Y-111309800D01*
X126138095Y-111309800D02*
X126042857Y-111357419D01*
X126042857Y-111357419D02*
X125804762Y-111357419D01*
X125804762Y-111357419D02*
X125709524Y-111309800D01*
X125709524Y-111309800D02*
X125661905Y-111262180D01*
D11*
X115109580Y-74816666D02*
X115157200Y-74864285D01*
X115157200Y-74864285D02*
X115204819Y-75007142D01*
X115204819Y-75007142D02*
X115204819Y-75102380D01*
X115204819Y-75102380D02*
X115157200Y-75245237D01*
X115157200Y-75245237D02*
X115061961Y-75340475D01*
X115061961Y-75340475D02*
X114966723Y-75388094D01*
X114966723Y-75388094D02*
X114776247Y-75435713D01*
X114776247Y-75435713D02*
X114633390Y-75435713D01*
X114633390Y-75435713D02*
X114442914Y-75388094D01*
X114442914Y-75388094D02*
X114347676Y-75340475D01*
X114347676Y-75340475D02*
X114252438Y-75245237D01*
X114252438Y-75245237D02*
X114204819Y-75102380D01*
X114204819Y-75102380D02*
X114204819Y-75007142D01*
X114204819Y-75007142D02*
X114252438Y-74864285D01*
X114252438Y-74864285D02*
X114300057Y-74816666D01*
X114300057Y-74435713D02*
X114252438Y-74388094D01*
X114252438Y-74388094D02*
X114204819Y-74292856D01*
X114204819Y-74292856D02*
X114204819Y-74054761D01*
X114204819Y-74054761D02*
X114252438Y-73959523D01*
X114252438Y-73959523D02*
X114300057Y-73911904D01*
X114300057Y-73911904D02*
X114395295Y-73864285D01*
X114395295Y-73864285D02*
X114490533Y-73864285D01*
X114490533Y-73864285D02*
X114633390Y-73911904D01*
X114633390Y-73911904D02*
X115204819Y-74483332D01*
X115204819Y-74483332D02*
X115204819Y-73864285D01*
X110904761Y-128300057D02*
X110809523Y-128252438D01*
X110809523Y-128252438D02*
X110714285Y-128157200D01*
X110714285Y-128157200D02*
X110571428Y-128014342D01*
X110571428Y-128014342D02*
X110476190Y-127966723D01*
X110476190Y-127966723D02*
X110380952Y-127966723D01*
X110428571Y-128204819D02*
X110333333Y-128157200D01*
X110333333Y-128157200D02*
X110238095Y-128061961D01*
X110238095Y-128061961D02*
X110190476Y-127871485D01*
X110190476Y-127871485D02*
X110190476Y-127538152D01*
X110190476Y-127538152D02*
X110238095Y-127347676D01*
X110238095Y-127347676D02*
X110333333Y-127252438D01*
X110333333Y-127252438D02*
X110428571Y-127204819D01*
X110428571Y-127204819D02*
X110619047Y-127204819D01*
X110619047Y-127204819D02*
X110714285Y-127252438D01*
X110714285Y-127252438D02*
X110809523Y-127347676D01*
X110809523Y-127347676D02*
X110857142Y-127538152D01*
X110857142Y-127538152D02*
X110857142Y-127871485D01*
X110857142Y-127871485D02*
X110809523Y-128061961D01*
X110809523Y-128061961D02*
X110714285Y-128157200D01*
X110714285Y-128157200D02*
X110619047Y-128204819D01*
X110619047Y-128204819D02*
X110428571Y-128204819D01*
X111809523Y-128204819D02*
X111238095Y-128204819D01*
X111523809Y-128204819D02*
X111523809Y-127204819D01*
X111523809Y-127204819D02*
X111428571Y-127347676D01*
X111428571Y-127347676D02*
X111333333Y-127442914D01*
X111333333Y-127442914D02*
X111238095Y-127490533D01*
D10*
X180566667Y-111309800D02*
X180709524Y-111357419D01*
X180709524Y-111357419D02*
X180947619Y-111357419D01*
X180947619Y-111357419D02*
X181042857Y-111309800D01*
X181042857Y-111309800D02*
X181090476Y-111262180D01*
X181090476Y-111262180D02*
X181138095Y-111166942D01*
X181138095Y-111166942D02*
X181138095Y-111071704D01*
X181138095Y-111071704D02*
X181090476Y-110976466D01*
X181090476Y-110976466D02*
X181042857Y-110928847D01*
X181042857Y-110928847D02*
X180947619Y-110881228D01*
X180947619Y-110881228D02*
X180757143Y-110833609D01*
X180757143Y-110833609D02*
X180661905Y-110785990D01*
X180661905Y-110785990D02*
X180614286Y-110738371D01*
X180614286Y-110738371D02*
X180566667Y-110643133D01*
X180566667Y-110643133D02*
X180566667Y-110547895D01*
X180566667Y-110547895D02*
X180614286Y-110452657D01*
X180614286Y-110452657D02*
X180661905Y-110405038D01*
X180661905Y-110405038D02*
X180757143Y-110357419D01*
X180757143Y-110357419D02*
X180995238Y-110357419D01*
X180995238Y-110357419D02*
X181138095Y-110405038D01*
X181471429Y-110357419D02*
X181709524Y-111357419D01*
X181709524Y-111357419D02*
X181900000Y-110643133D01*
X181900000Y-110643133D02*
X182090476Y-111357419D01*
X182090476Y-111357419D02*
X182328572Y-110357419D01*
X182852381Y-110785990D02*
X182757143Y-110738371D01*
X182757143Y-110738371D02*
X182709524Y-110690752D01*
X182709524Y-110690752D02*
X182661905Y-110595514D01*
X182661905Y-110595514D02*
X182661905Y-110547895D01*
X182661905Y-110547895D02*
X182709524Y-110452657D01*
X182709524Y-110452657D02*
X182757143Y-110405038D01*
X182757143Y-110405038D02*
X182852381Y-110357419D01*
X182852381Y-110357419D02*
X183042857Y-110357419D01*
X183042857Y-110357419D02*
X183138095Y-110405038D01*
X183138095Y-110405038D02*
X183185714Y-110452657D01*
X183185714Y-110452657D02*
X183233333Y-110547895D01*
X183233333Y-110547895D02*
X183233333Y-110595514D01*
X183233333Y-110595514D02*
X183185714Y-110690752D01*
X183185714Y-110690752D02*
X183138095Y-110738371D01*
X183138095Y-110738371D02*
X183042857Y-110785990D01*
X183042857Y-110785990D02*
X182852381Y-110785990D01*
X182852381Y-110785990D02*
X182757143Y-110833609D01*
X182757143Y-110833609D02*
X182709524Y-110881228D01*
X182709524Y-110881228D02*
X182661905Y-110976466D01*
X182661905Y-110976466D02*
X182661905Y-111166942D01*
X182661905Y-111166942D02*
X182709524Y-111262180D01*
X182709524Y-111262180D02*
X182757143Y-111309800D01*
X182757143Y-111309800D02*
X182852381Y-111357419D01*
X182852381Y-111357419D02*
X183042857Y-111357419D01*
X183042857Y-111357419D02*
X183138095Y-111309800D01*
X183138095Y-111309800D02*
X183185714Y-111262180D01*
X183185714Y-111262180D02*
X183233333Y-111166942D01*
X183233333Y-111166942D02*
X183233333Y-110976466D01*
X183233333Y-110976466D02*
X183185714Y-110881228D01*
X183185714Y-110881228D02*
X183138095Y-110833609D01*
X183138095Y-110833609D02*
X183042857Y-110785990D01*
D11*
X101991905Y-128664819D02*
X101991905Y-127664819D01*
X101991905Y-127664819D02*
X102230000Y-127664819D01*
X102230000Y-127664819D02*
X102372857Y-127712438D01*
X102372857Y-127712438D02*
X102468095Y-127807676D01*
X102468095Y-127807676D02*
X102515714Y-127902914D01*
X102515714Y-127902914D02*
X102563333Y-128093390D01*
X102563333Y-128093390D02*
X102563333Y-128236247D01*
X102563333Y-128236247D02*
X102515714Y-128426723D01*
X102515714Y-128426723D02*
X102468095Y-128521961D01*
X102468095Y-128521961D02*
X102372857Y-128617200D01*
X102372857Y-128617200D02*
X102230000Y-128664819D01*
X102230000Y-128664819D02*
X101991905Y-128664819D01*
X103515714Y-128664819D02*
X102944286Y-128664819D01*
X103230000Y-128664819D02*
X103230000Y-127664819D01*
X103230000Y-127664819D02*
X103134762Y-127807676D01*
X103134762Y-127807676D02*
X103039524Y-127902914D01*
X103039524Y-127902914D02*
X102944286Y-127950533D01*
X101991905Y-112664819D02*
X101991905Y-111664819D01*
X101991905Y-111664819D02*
X102230000Y-111664819D01*
X102230000Y-111664819D02*
X102372857Y-111712438D01*
X102372857Y-111712438D02*
X102468095Y-111807676D01*
X102468095Y-111807676D02*
X102515714Y-111902914D01*
X102515714Y-111902914D02*
X102563333Y-112093390D01*
X102563333Y-112093390D02*
X102563333Y-112236247D01*
X102563333Y-112236247D02*
X102515714Y-112426723D01*
X102515714Y-112426723D02*
X102468095Y-112521961D01*
X102468095Y-112521961D02*
X102372857Y-112617200D01*
X102372857Y-112617200D02*
X102230000Y-112664819D01*
X102230000Y-112664819D02*
X101991905Y-112664819D01*
X102896667Y-111664819D02*
X103515714Y-111664819D01*
X103515714Y-111664819D02*
X103182381Y-112045771D01*
X103182381Y-112045771D02*
X103325238Y-112045771D01*
X103325238Y-112045771D02*
X103420476Y-112093390D01*
X103420476Y-112093390D02*
X103468095Y-112141009D01*
X103468095Y-112141009D02*
X103515714Y-112236247D01*
X103515714Y-112236247D02*
X103515714Y-112474342D01*
X103515714Y-112474342D02*
X103468095Y-112569580D01*
X103468095Y-112569580D02*
X103420476Y-112617200D01*
X103420476Y-112617200D02*
X103325238Y-112664819D01*
X103325238Y-112664819D02*
X103039524Y-112664819D01*
X103039524Y-112664819D02*
X102944286Y-112617200D01*
X102944286Y-112617200D02*
X102896667Y-112569580D01*
D10*
X142566667Y-92309800D02*
X142709524Y-92357419D01*
X142709524Y-92357419D02*
X142947619Y-92357419D01*
X142947619Y-92357419D02*
X143042857Y-92309800D01*
X143042857Y-92309800D02*
X143090476Y-92262180D01*
X143090476Y-92262180D02*
X143138095Y-92166942D01*
X143138095Y-92166942D02*
X143138095Y-92071704D01*
X143138095Y-92071704D02*
X143090476Y-91976466D01*
X143090476Y-91976466D02*
X143042857Y-91928847D01*
X143042857Y-91928847D02*
X142947619Y-91881228D01*
X142947619Y-91881228D02*
X142757143Y-91833609D01*
X142757143Y-91833609D02*
X142661905Y-91785990D01*
X142661905Y-91785990D02*
X142614286Y-91738371D01*
X142614286Y-91738371D02*
X142566667Y-91643133D01*
X142566667Y-91643133D02*
X142566667Y-91547895D01*
X142566667Y-91547895D02*
X142614286Y-91452657D01*
X142614286Y-91452657D02*
X142661905Y-91405038D01*
X142661905Y-91405038D02*
X142757143Y-91357419D01*
X142757143Y-91357419D02*
X142995238Y-91357419D01*
X142995238Y-91357419D02*
X143138095Y-91405038D01*
X143471429Y-91357419D02*
X143709524Y-92357419D01*
X143709524Y-92357419D02*
X143900000Y-91643133D01*
X143900000Y-91643133D02*
X144090476Y-92357419D01*
X144090476Y-92357419D02*
X144328572Y-91357419D01*
X144661905Y-91452657D02*
X144709524Y-91405038D01*
X144709524Y-91405038D02*
X144804762Y-91357419D01*
X144804762Y-91357419D02*
X145042857Y-91357419D01*
X145042857Y-91357419D02*
X145138095Y-91405038D01*
X145138095Y-91405038D02*
X145185714Y-91452657D01*
X145185714Y-91452657D02*
X145233333Y-91547895D01*
X145233333Y-91547895D02*
X145233333Y-91643133D01*
X145233333Y-91643133D02*
X145185714Y-91785990D01*
X145185714Y-91785990D02*
X144614286Y-92357419D01*
X144614286Y-92357419D02*
X145233333Y-92357419D01*
D11*
X106324761Y-110150057D02*
X106229523Y-110102438D01*
X106229523Y-110102438D02*
X106134285Y-110007200D01*
X106134285Y-110007200D02*
X105991428Y-109864342D01*
X105991428Y-109864342D02*
X105896190Y-109816723D01*
X105896190Y-109816723D02*
X105800952Y-109816723D01*
X105848571Y-110054819D02*
X105753333Y-110007200D01*
X105753333Y-110007200D02*
X105658095Y-109911961D01*
X105658095Y-109911961D02*
X105610476Y-109721485D01*
X105610476Y-109721485D02*
X105610476Y-109388152D01*
X105610476Y-109388152D02*
X105658095Y-109197676D01*
X105658095Y-109197676D02*
X105753333Y-109102438D01*
X105753333Y-109102438D02*
X105848571Y-109054819D01*
X105848571Y-109054819D02*
X106039047Y-109054819D01*
X106039047Y-109054819D02*
X106134285Y-109102438D01*
X106134285Y-109102438D02*
X106229523Y-109197676D01*
X106229523Y-109197676D02*
X106277142Y-109388152D01*
X106277142Y-109388152D02*
X106277142Y-109721485D01*
X106277142Y-109721485D02*
X106229523Y-109911961D01*
X106229523Y-109911961D02*
X106134285Y-110007200D01*
X106134285Y-110007200D02*
X106039047Y-110054819D01*
X106039047Y-110054819D02*
X105848571Y-110054819D01*
X106610476Y-109054819D02*
X107229523Y-109054819D01*
X107229523Y-109054819D02*
X106896190Y-109435771D01*
X106896190Y-109435771D02*
X107039047Y-109435771D01*
X107039047Y-109435771D02*
X107134285Y-109483390D01*
X107134285Y-109483390D02*
X107181904Y-109531009D01*
X107181904Y-109531009D02*
X107229523Y-109626247D01*
X107229523Y-109626247D02*
X107229523Y-109864342D01*
X107229523Y-109864342D02*
X107181904Y-109959580D01*
X107181904Y-109959580D02*
X107134285Y-110007200D01*
X107134285Y-110007200D02*
X107039047Y-110054819D01*
X107039047Y-110054819D02*
X106753333Y-110054819D01*
X106753333Y-110054819D02*
X106658095Y-110007200D01*
X106658095Y-110007200D02*
X106610476Y-109959580D01*
X93443333Y-112054819D02*
X93110000Y-111578628D01*
X92871905Y-112054819D02*
X92871905Y-111054819D01*
X92871905Y-111054819D02*
X93252857Y-111054819D01*
X93252857Y-111054819D02*
X93348095Y-111102438D01*
X93348095Y-111102438D02*
X93395714Y-111150057D01*
X93395714Y-111150057D02*
X93443333Y-111245295D01*
X93443333Y-111245295D02*
X93443333Y-111388152D01*
X93443333Y-111388152D02*
X93395714Y-111483390D01*
X93395714Y-111483390D02*
X93348095Y-111531009D01*
X93348095Y-111531009D02*
X93252857Y-111578628D01*
X93252857Y-111578628D02*
X92871905Y-111578628D01*
X93824286Y-111150057D02*
X93871905Y-111102438D01*
X93871905Y-111102438D02*
X93967143Y-111054819D01*
X93967143Y-111054819D02*
X94205238Y-111054819D01*
X94205238Y-111054819D02*
X94300476Y-111102438D01*
X94300476Y-111102438D02*
X94348095Y-111150057D01*
X94348095Y-111150057D02*
X94395714Y-111245295D01*
X94395714Y-111245295D02*
X94395714Y-111340533D01*
X94395714Y-111340533D02*
X94348095Y-111483390D01*
X94348095Y-111483390D02*
X93776667Y-112054819D01*
X93776667Y-112054819D02*
X94395714Y-112054819D01*
D10*
X161566667Y-111309800D02*
X161709524Y-111357419D01*
X161709524Y-111357419D02*
X161947619Y-111357419D01*
X161947619Y-111357419D02*
X162042857Y-111309800D01*
X162042857Y-111309800D02*
X162090476Y-111262180D01*
X162090476Y-111262180D02*
X162138095Y-111166942D01*
X162138095Y-111166942D02*
X162138095Y-111071704D01*
X162138095Y-111071704D02*
X162090476Y-110976466D01*
X162090476Y-110976466D02*
X162042857Y-110928847D01*
X162042857Y-110928847D02*
X161947619Y-110881228D01*
X161947619Y-110881228D02*
X161757143Y-110833609D01*
X161757143Y-110833609D02*
X161661905Y-110785990D01*
X161661905Y-110785990D02*
X161614286Y-110738371D01*
X161614286Y-110738371D02*
X161566667Y-110643133D01*
X161566667Y-110643133D02*
X161566667Y-110547895D01*
X161566667Y-110547895D02*
X161614286Y-110452657D01*
X161614286Y-110452657D02*
X161661905Y-110405038D01*
X161661905Y-110405038D02*
X161757143Y-110357419D01*
X161757143Y-110357419D02*
X161995238Y-110357419D01*
X161995238Y-110357419D02*
X162138095Y-110405038D01*
X162471429Y-110357419D02*
X162709524Y-111357419D01*
X162709524Y-111357419D02*
X162900000Y-110643133D01*
X162900000Y-110643133D02*
X163090476Y-111357419D01*
X163090476Y-111357419D02*
X163328572Y-110357419D01*
X163614286Y-110357419D02*
X164280952Y-110357419D01*
X164280952Y-110357419D02*
X163852381Y-111357419D01*
D11*
X106324761Y-118500057D02*
X106229523Y-118452438D01*
X106229523Y-118452438D02*
X106134285Y-118357200D01*
X106134285Y-118357200D02*
X105991428Y-118214342D01*
X105991428Y-118214342D02*
X105896190Y-118166723D01*
X105896190Y-118166723D02*
X105800952Y-118166723D01*
X105848571Y-118404819D02*
X105753333Y-118357200D01*
X105753333Y-118357200D02*
X105658095Y-118261961D01*
X105658095Y-118261961D02*
X105610476Y-118071485D01*
X105610476Y-118071485D02*
X105610476Y-117738152D01*
X105610476Y-117738152D02*
X105658095Y-117547676D01*
X105658095Y-117547676D02*
X105753333Y-117452438D01*
X105753333Y-117452438D02*
X105848571Y-117404819D01*
X105848571Y-117404819D02*
X106039047Y-117404819D01*
X106039047Y-117404819D02*
X106134285Y-117452438D01*
X106134285Y-117452438D02*
X106229523Y-117547676D01*
X106229523Y-117547676D02*
X106277142Y-117738152D01*
X106277142Y-117738152D02*
X106277142Y-118071485D01*
X106277142Y-118071485D02*
X106229523Y-118261961D01*
X106229523Y-118261961D02*
X106134285Y-118357200D01*
X106134285Y-118357200D02*
X106039047Y-118404819D01*
X106039047Y-118404819D02*
X105848571Y-118404819D01*
X106658095Y-117500057D02*
X106705714Y-117452438D01*
X106705714Y-117452438D02*
X106800952Y-117404819D01*
X106800952Y-117404819D02*
X107039047Y-117404819D01*
X107039047Y-117404819D02*
X107134285Y-117452438D01*
X107134285Y-117452438D02*
X107181904Y-117500057D01*
X107181904Y-117500057D02*
X107229523Y-117595295D01*
X107229523Y-117595295D02*
X107229523Y-117690533D01*
X107229523Y-117690533D02*
X107181904Y-117833390D01*
X107181904Y-117833390D02*
X106610476Y-118404819D01*
X106610476Y-118404819D02*
X107229523Y-118404819D01*
X93443333Y-106254819D02*
X93110000Y-105778628D01*
X92871905Y-106254819D02*
X92871905Y-105254819D01*
X92871905Y-105254819D02*
X93252857Y-105254819D01*
X93252857Y-105254819D02*
X93348095Y-105302438D01*
X93348095Y-105302438D02*
X93395714Y-105350057D01*
X93395714Y-105350057D02*
X93443333Y-105445295D01*
X93443333Y-105445295D02*
X93443333Y-105588152D01*
X93443333Y-105588152D02*
X93395714Y-105683390D01*
X93395714Y-105683390D02*
X93348095Y-105731009D01*
X93348095Y-105731009D02*
X93252857Y-105778628D01*
X93252857Y-105778628D02*
X92871905Y-105778628D01*
X93776667Y-105254819D02*
X94395714Y-105254819D01*
X94395714Y-105254819D02*
X94062381Y-105635771D01*
X94062381Y-105635771D02*
X94205238Y-105635771D01*
X94205238Y-105635771D02*
X94300476Y-105683390D01*
X94300476Y-105683390D02*
X94348095Y-105731009D01*
X94348095Y-105731009D02*
X94395714Y-105826247D01*
X94395714Y-105826247D02*
X94395714Y-106064342D01*
X94395714Y-106064342D02*
X94348095Y-106159580D01*
X94348095Y-106159580D02*
X94300476Y-106207200D01*
X94300476Y-106207200D02*
X94205238Y-106254819D01*
X94205238Y-106254819D02*
X93919524Y-106254819D01*
X93919524Y-106254819D02*
X93824286Y-106207200D01*
X93824286Y-106207200D02*
X93776667Y-106159580D01*
X125023333Y-73954819D02*
X124690000Y-73478628D01*
X124451905Y-73954819D02*
X124451905Y-72954819D01*
X124451905Y-72954819D02*
X124832857Y-72954819D01*
X124832857Y-72954819D02*
X124928095Y-73002438D01*
X124928095Y-73002438D02*
X124975714Y-73050057D01*
X124975714Y-73050057D02*
X125023333Y-73145295D01*
X125023333Y-73145295D02*
X125023333Y-73288152D01*
X125023333Y-73288152D02*
X124975714Y-73383390D01*
X124975714Y-73383390D02*
X124928095Y-73431009D01*
X124928095Y-73431009D02*
X124832857Y-73478628D01*
X124832857Y-73478628D02*
X124451905Y-73478628D01*
X125880476Y-72954819D02*
X125690000Y-72954819D01*
X125690000Y-72954819D02*
X125594762Y-73002438D01*
X125594762Y-73002438D02*
X125547143Y-73050057D01*
X125547143Y-73050057D02*
X125451905Y-73192914D01*
X125451905Y-73192914D02*
X125404286Y-73383390D01*
X125404286Y-73383390D02*
X125404286Y-73764342D01*
X125404286Y-73764342D02*
X125451905Y-73859580D01*
X125451905Y-73859580D02*
X125499524Y-73907200D01*
X125499524Y-73907200D02*
X125594762Y-73954819D01*
X125594762Y-73954819D02*
X125785238Y-73954819D01*
X125785238Y-73954819D02*
X125880476Y-73907200D01*
X125880476Y-73907200D02*
X125928095Y-73859580D01*
X125928095Y-73859580D02*
X125975714Y-73764342D01*
X125975714Y-73764342D02*
X125975714Y-73526247D01*
X125975714Y-73526247D02*
X125928095Y-73431009D01*
X125928095Y-73431009D02*
X125880476Y-73383390D01*
X125880476Y-73383390D02*
X125785238Y-73335771D01*
X125785238Y-73335771D02*
X125594762Y-73335771D01*
X125594762Y-73335771D02*
X125499524Y-73383390D01*
X125499524Y-73383390D02*
X125451905Y-73431009D01*
X125451905Y-73431009D02*
X125404286Y-73526247D01*
X106324761Y-102800057D02*
X106229523Y-102752438D01*
X106229523Y-102752438D02*
X106134285Y-102657200D01*
X106134285Y-102657200D02*
X105991428Y-102514342D01*
X105991428Y-102514342D02*
X105896190Y-102466723D01*
X105896190Y-102466723D02*
X105800952Y-102466723D01*
X105848571Y-102704819D02*
X105753333Y-102657200D01*
X105753333Y-102657200D02*
X105658095Y-102561961D01*
X105658095Y-102561961D02*
X105610476Y-102371485D01*
X105610476Y-102371485D02*
X105610476Y-102038152D01*
X105610476Y-102038152D02*
X105658095Y-101847676D01*
X105658095Y-101847676D02*
X105753333Y-101752438D01*
X105753333Y-101752438D02*
X105848571Y-101704819D01*
X105848571Y-101704819D02*
X106039047Y-101704819D01*
X106039047Y-101704819D02*
X106134285Y-101752438D01*
X106134285Y-101752438D02*
X106229523Y-101847676D01*
X106229523Y-101847676D02*
X106277142Y-102038152D01*
X106277142Y-102038152D02*
X106277142Y-102371485D01*
X106277142Y-102371485D02*
X106229523Y-102561961D01*
X106229523Y-102561961D02*
X106134285Y-102657200D01*
X106134285Y-102657200D02*
X106039047Y-102704819D01*
X106039047Y-102704819D02*
X105848571Y-102704819D01*
X107134285Y-102038152D02*
X107134285Y-102704819D01*
X106896190Y-101657200D02*
X106658095Y-102371485D01*
X106658095Y-102371485D02*
X107277142Y-102371485D01*
X125023333Y-77804819D02*
X124690000Y-77328628D01*
X124451905Y-77804819D02*
X124451905Y-76804819D01*
X124451905Y-76804819D02*
X124832857Y-76804819D01*
X124832857Y-76804819D02*
X124928095Y-76852438D01*
X124928095Y-76852438D02*
X124975714Y-76900057D01*
X124975714Y-76900057D02*
X125023333Y-76995295D01*
X125023333Y-76995295D02*
X125023333Y-77138152D01*
X125023333Y-77138152D02*
X124975714Y-77233390D01*
X124975714Y-77233390D02*
X124928095Y-77281009D01*
X124928095Y-77281009D02*
X124832857Y-77328628D01*
X124832857Y-77328628D02*
X124451905Y-77328628D01*
X125594762Y-77233390D02*
X125499524Y-77185771D01*
X125499524Y-77185771D02*
X125451905Y-77138152D01*
X125451905Y-77138152D02*
X125404286Y-77042914D01*
X125404286Y-77042914D02*
X125404286Y-76995295D01*
X125404286Y-76995295D02*
X125451905Y-76900057D01*
X125451905Y-76900057D02*
X125499524Y-76852438D01*
X125499524Y-76852438D02*
X125594762Y-76804819D01*
X125594762Y-76804819D02*
X125785238Y-76804819D01*
X125785238Y-76804819D02*
X125880476Y-76852438D01*
X125880476Y-76852438D02*
X125928095Y-76900057D01*
X125928095Y-76900057D02*
X125975714Y-76995295D01*
X125975714Y-76995295D02*
X125975714Y-77042914D01*
X125975714Y-77042914D02*
X125928095Y-77138152D01*
X125928095Y-77138152D02*
X125880476Y-77185771D01*
X125880476Y-77185771D02*
X125785238Y-77233390D01*
X125785238Y-77233390D02*
X125594762Y-77233390D01*
X125594762Y-77233390D02*
X125499524Y-77281009D01*
X125499524Y-77281009D02*
X125451905Y-77328628D01*
X125451905Y-77328628D02*
X125404286Y-77423866D01*
X125404286Y-77423866D02*
X125404286Y-77614342D01*
X125404286Y-77614342D02*
X125451905Y-77709580D01*
X125451905Y-77709580D02*
X125499524Y-77757200D01*
X125499524Y-77757200D02*
X125594762Y-77804819D01*
X125594762Y-77804819D02*
X125785238Y-77804819D01*
X125785238Y-77804819D02*
X125880476Y-77757200D01*
X125880476Y-77757200D02*
X125928095Y-77709580D01*
X125928095Y-77709580D02*
X125975714Y-77614342D01*
X125975714Y-77614342D02*
X125975714Y-77423866D01*
X125975714Y-77423866D02*
X125928095Y-77328628D01*
X125928095Y-77328628D02*
X125880476Y-77281009D01*
X125880476Y-77281009D02*
X125785238Y-77233390D01*
X101991905Y-120664819D02*
X101991905Y-119664819D01*
X101991905Y-119664819D02*
X102230000Y-119664819D01*
X102230000Y-119664819D02*
X102372857Y-119712438D01*
X102372857Y-119712438D02*
X102468095Y-119807676D01*
X102468095Y-119807676D02*
X102515714Y-119902914D01*
X102515714Y-119902914D02*
X102563333Y-120093390D01*
X102563333Y-120093390D02*
X102563333Y-120236247D01*
X102563333Y-120236247D02*
X102515714Y-120426723D01*
X102515714Y-120426723D02*
X102468095Y-120521961D01*
X102468095Y-120521961D02*
X102372857Y-120617200D01*
X102372857Y-120617200D02*
X102230000Y-120664819D01*
X102230000Y-120664819D02*
X101991905Y-120664819D01*
X102944286Y-119760057D02*
X102991905Y-119712438D01*
X102991905Y-119712438D02*
X103087143Y-119664819D01*
X103087143Y-119664819D02*
X103325238Y-119664819D01*
X103325238Y-119664819D02*
X103420476Y-119712438D01*
X103420476Y-119712438D02*
X103468095Y-119760057D01*
X103468095Y-119760057D02*
X103515714Y-119855295D01*
X103515714Y-119855295D02*
X103515714Y-119950533D01*
X103515714Y-119950533D02*
X103468095Y-120093390D01*
X103468095Y-120093390D02*
X102896667Y-120664819D01*
X102896667Y-120664819D02*
X103515714Y-120664819D01*
X93443333Y-117054819D02*
X93110000Y-116578628D01*
X92871905Y-117054819D02*
X92871905Y-116054819D01*
X92871905Y-116054819D02*
X93252857Y-116054819D01*
X93252857Y-116054819D02*
X93348095Y-116102438D01*
X93348095Y-116102438D02*
X93395714Y-116150057D01*
X93395714Y-116150057D02*
X93443333Y-116245295D01*
X93443333Y-116245295D02*
X93443333Y-116388152D01*
X93443333Y-116388152D02*
X93395714Y-116483390D01*
X93395714Y-116483390D02*
X93348095Y-116531009D01*
X93348095Y-116531009D02*
X93252857Y-116578628D01*
X93252857Y-116578628D02*
X92871905Y-116578628D01*
X94395714Y-117054819D02*
X93824286Y-117054819D01*
X94110000Y-117054819D02*
X94110000Y-116054819D01*
X94110000Y-116054819D02*
X94014762Y-116197676D01*
X94014762Y-116197676D02*
X93919524Y-116292914D01*
X93919524Y-116292914D02*
X93824286Y-116340533D01*
X101991905Y-104664819D02*
X101991905Y-103664819D01*
X101991905Y-103664819D02*
X102230000Y-103664819D01*
X102230000Y-103664819D02*
X102372857Y-103712438D01*
X102372857Y-103712438D02*
X102468095Y-103807676D01*
X102468095Y-103807676D02*
X102515714Y-103902914D01*
X102515714Y-103902914D02*
X102563333Y-104093390D01*
X102563333Y-104093390D02*
X102563333Y-104236247D01*
X102563333Y-104236247D02*
X102515714Y-104426723D01*
X102515714Y-104426723D02*
X102468095Y-104521961D01*
X102468095Y-104521961D02*
X102372857Y-104617200D01*
X102372857Y-104617200D02*
X102230000Y-104664819D01*
X102230000Y-104664819D02*
X101991905Y-104664819D01*
X103420476Y-103998152D02*
X103420476Y-104664819D01*
X103182381Y-103617200D02*
X102944286Y-104331485D01*
X102944286Y-104331485D02*
X103563333Y-104331485D01*
D10*
X101686667Y-79109800D02*
X101829524Y-79157419D01*
X101829524Y-79157419D02*
X102067619Y-79157419D01*
X102067619Y-79157419D02*
X102162857Y-79109800D01*
X102162857Y-79109800D02*
X102210476Y-79062180D01*
X102210476Y-79062180D02*
X102258095Y-78966942D01*
X102258095Y-78966942D02*
X102258095Y-78871704D01*
X102258095Y-78871704D02*
X102210476Y-78776466D01*
X102210476Y-78776466D02*
X102162857Y-78728847D01*
X102162857Y-78728847D02*
X102067619Y-78681228D01*
X102067619Y-78681228D02*
X101877143Y-78633609D01*
X101877143Y-78633609D02*
X101781905Y-78585990D01*
X101781905Y-78585990D02*
X101734286Y-78538371D01*
X101734286Y-78538371D02*
X101686667Y-78443133D01*
X101686667Y-78443133D02*
X101686667Y-78347895D01*
X101686667Y-78347895D02*
X101734286Y-78252657D01*
X101734286Y-78252657D02*
X101781905Y-78205038D01*
X101781905Y-78205038D02*
X101877143Y-78157419D01*
X101877143Y-78157419D02*
X102115238Y-78157419D01*
X102115238Y-78157419D02*
X102258095Y-78205038D01*
X102591429Y-78157419D02*
X102829524Y-79157419D01*
X102829524Y-79157419D02*
X103020000Y-78443133D01*
X103020000Y-78443133D02*
X103210476Y-79157419D01*
X103210476Y-79157419D02*
X103448572Y-78157419D01*
X103877143Y-79157419D02*
X104067619Y-79157419D01*
X104067619Y-79157419D02*
X104162857Y-79109800D01*
X104162857Y-79109800D02*
X104210476Y-79062180D01*
X104210476Y-79062180D02*
X104305714Y-78919323D01*
X104305714Y-78919323D02*
X104353333Y-78728847D01*
X104353333Y-78728847D02*
X104353333Y-78347895D01*
X104353333Y-78347895D02*
X104305714Y-78252657D01*
X104305714Y-78252657D02*
X104258095Y-78205038D01*
X104258095Y-78205038D02*
X104162857Y-78157419D01*
X104162857Y-78157419D02*
X103972381Y-78157419D01*
X103972381Y-78157419D02*
X103877143Y-78205038D01*
X103877143Y-78205038D02*
X103829524Y-78252657D01*
X103829524Y-78252657D02*
X103781905Y-78347895D01*
X103781905Y-78347895D02*
X103781905Y-78585990D01*
X103781905Y-78585990D02*
X103829524Y-78681228D01*
X103829524Y-78681228D02*
X103877143Y-78728847D01*
X103877143Y-78728847D02*
X103972381Y-78776466D01*
X103972381Y-78776466D02*
X104162857Y-78776466D01*
X104162857Y-78776466D02*
X104258095Y-78728847D01*
X104258095Y-78728847D02*
X104305714Y-78681228D01*
X104305714Y-78681228D02*
X104353333Y-78585990D01*
D11*
X125023333Y-81854819D02*
X124690000Y-81378628D01*
X124451905Y-81854819D02*
X124451905Y-80854819D01*
X124451905Y-80854819D02*
X124832857Y-80854819D01*
X124832857Y-80854819D02*
X124928095Y-80902438D01*
X124928095Y-80902438D02*
X124975714Y-80950057D01*
X124975714Y-80950057D02*
X125023333Y-81045295D01*
X125023333Y-81045295D02*
X125023333Y-81188152D01*
X125023333Y-81188152D02*
X124975714Y-81283390D01*
X124975714Y-81283390D02*
X124928095Y-81331009D01*
X124928095Y-81331009D02*
X124832857Y-81378628D01*
X124832857Y-81378628D02*
X124451905Y-81378628D01*
X125356667Y-80854819D02*
X126023333Y-80854819D01*
X126023333Y-80854819D02*
X125594762Y-81854819D01*
D10*
X123566667Y-92309800D02*
X123709524Y-92357419D01*
X123709524Y-92357419D02*
X123947619Y-92357419D01*
X123947619Y-92357419D02*
X124042857Y-92309800D01*
X124042857Y-92309800D02*
X124090476Y-92262180D01*
X124090476Y-92262180D02*
X124138095Y-92166942D01*
X124138095Y-92166942D02*
X124138095Y-92071704D01*
X124138095Y-92071704D02*
X124090476Y-91976466D01*
X124090476Y-91976466D02*
X124042857Y-91928847D01*
X124042857Y-91928847D02*
X123947619Y-91881228D01*
X123947619Y-91881228D02*
X123757143Y-91833609D01*
X123757143Y-91833609D02*
X123661905Y-91785990D01*
X123661905Y-91785990D02*
X123614286Y-91738371D01*
X123614286Y-91738371D02*
X123566667Y-91643133D01*
X123566667Y-91643133D02*
X123566667Y-91547895D01*
X123566667Y-91547895D02*
X123614286Y-91452657D01*
X123614286Y-91452657D02*
X123661905Y-91405038D01*
X123661905Y-91405038D02*
X123757143Y-91357419D01*
X123757143Y-91357419D02*
X123995238Y-91357419D01*
X123995238Y-91357419D02*
X124138095Y-91405038D01*
X124471429Y-91357419D02*
X124709524Y-92357419D01*
X124709524Y-92357419D02*
X124900000Y-91643133D01*
X124900000Y-91643133D02*
X125090476Y-92357419D01*
X125090476Y-92357419D02*
X125328572Y-91357419D01*
X126233333Y-92357419D02*
X125661905Y-92357419D01*
X125947619Y-92357419D02*
X125947619Y-91357419D01*
X125947619Y-91357419D02*
X125852381Y-91500276D01*
X125852381Y-91500276D02*
X125757143Y-91595514D01*
X125757143Y-91595514D02*
X125661905Y-91643133D01*
X161566667Y-92309800D02*
X161709524Y-92357419D01*
X161709524Y-92357419D02*
X161947619Y-92357419D01*
X161947619Y-92357419D02*
X162042857Y-92309800D01*
X162042857Y-92309800D02*
X162090476Y-92262180D01*
X162090476Y-92262180D02*
X162138095Y-92166942D01*
X162138095Y-92166942D02*
X162138095Y-92071704D01*
X162138095Y-92071704D02*
X162090476Y-91976466D01*
X162090476Y-91976466D02*
X162042857Y-91928847D01*
X162042857Y-91928847D02*
X161947619Y-91881228D01*
X161947619Y-91881228D02*
X161757143Y-91833609D01*
X161757143Y-91833609D02*
X161661905Y-91785990D01*
X161661905Y-91785990D02*
X161614286Y-91738371D01*
X161614286Y-91738371D02*
X161566667Y-91643133D01*
X161566667Y-91643133D02*
X161566667Y-91547895D01*
X161566667Y-91547895D02*
X161614286Y-91452657D01*
X161614286Y-91452657D02*
X161661905Y-91405038D01*
X161661905Y-91405038D02*
X161757143Y-91357419D01*
X161757143Y-91357419D02*
X161995238Y-91357419D01*
X161995238Y-91357419D02*
X162138095Y-91405038D01*
X162471429Y-91357419D02*
X162709524Y-92357419D01*
X162709524Y-92357419D02*
X162900000Y-91643133D01*
X162900000Y-91643133D02*
X163090476Y-92357419D01*
X163090476Y-92357419D02*
X163328572Y-91357419D01*
X163614286Y-91357419D02*
X164233333Y-91357419D01*
X164233333Y-91357419D02*
X163900000Y-91738371D01*
X163900000Y-91738371D02*
X164042857Y-91738371D01*
X164042857Y-91738371D02*
X164138095Y-91785990D01*
X164138095Y-91785990D02*
X164185714Y-91833609D01*
X164185714Y-91833609D02*
X164233333Y-91928847D01*
X164233333Y-91928847D02*
X164233333Y-92166942D01*
X164233333Y-92166942D02*
X164185714Y-92262180D01*
X164185714Y-92262180D02*
X164138095Y-92309800D01*
X164138095Y-92309800D02*
X164042857Y-92357419D01*
X164042857Y-92357419D02*
X163757143Y-92357419D01*
X163757143Y-92357419D02*
X163661905Y-92309800D01*
X163661905Y-92309800D02*
X163614286Y-92262180D01*
X154238095Y-71917419D02*
X154238095Y-72726942D01*
X154238095Y-72726942D02*
X154285714Y-72822180D01*
X154285714Y-72822180D02*
X154333333Y-72869800D01*
X154333333Y-72869800D02*
X154428571Y-72917419D01*
X154428571Y-72917419D02*
X154619047Y-72917419D01*
X154619047Y-72917419D02*
X154714285Y-72869800D01*
X154714285Y-72869800D02*
X154761904Y-72822180D01*
X154761904Y-72822180D02*
X154809523Y-72726942D01*
X154809523Y-72726942D02*
X154809523Y-71917419D01*
X155238095Y-72012657D02*
X155285714Y-71965038D01*
X155285714Y-71965038D02*
X155380952Y-71917419D01*
X155380952Y-71917419D02*
X155619047Y-71917419D01*
X155619047Y-71917419D02*
X155714285Y-71965038D01*
X155714285Y-71965038D02*
X155761904Y-72012657D01*
X155761904Y-72012657D02*
X155809523Y-72107895D01*
X155809523Y-72107895D02*
X155809523Y-72203133D01*
X155809523Y-72203133D02*
X155761904Y-72345990D01*
X155761904Y-72345990D02*
X155190476Y-72917419D01*
X155190476Y-72917419D02*
X155809523Y-72917419D01*
D11*
X134690476Y-72657200D02*
X134833333Y-72704819D01*
X134833333Y-72704819D02*
X135071428Y-72704819D01*
X135071428Y-72704819D02*
X135166666Y-72657200D01*
X135166666Y-72657200D02*
X135214285Y-72609580D01*
X135214285Y-72609580D02*
X135261904Y-72514342D01*
X135261904Y-72514342D02*
X135261904Y-72419104D01*
X135261904Y-72419104D02*
X135214285Y-72323866D01*
X135214285Y-72323866D02*
X135166666Y-72276247D01*
X135166666Y-72276247D02*
X135071428Y-72228628D01*
X135071428Y-72228628D02*
X134880952Y-72181009D01*
X134880952Y-72181009D02*
X134785714Y-72133390D01*
X134785714Y-72133390D02*
X134738095Y-72085771D01*
X134738095Y-72085771D02*
X134690476Y-71990533D01*
X134690476Y-71990533D02*
X134690476Y-71895295D01*
X134690476Y-71895295D02*
X134738095Y-71800057D01*
X134738095Y-71800057D02*
X134785714Y-71752438D01*
X134785714Y-71752438D02*
X134880952Y-71704819D01*
X134880952Y-71704819D02*
X135119047Y-71704819D01*
X135119047Y-71704819D02*
X135261904Y-71752438D01*
X135595238Y-71704819D02*
X135833333Y-72704819D01*
X135833333Y-72704819D02*
X136023809Y-71990533D01*
X136023809Y-71990533D02*
X136214285Y-72704819D01*
X136214285Y-72704819D02*
X136452381Y-71704819D01*
X137357142Y-72704819D02*
X136785714Y-72704819D01*
X137071428Y-72704819D02*
X137071428Y-71704819D01*
X137071428Y-71704819D02*
X136976190Y-71847676D01*
X136976190Y-71847676D02*
X136880952Y-71942914D01*
X136880952Y-71942914D02*
X136785714Y-71990533D01*
X137976190Y-71704819D02*
X138071428Y-71704819D01*
X138071428Y-71704819D02*
X138166666Y-71752438D01*
X138166666Y-71752438D02*
X138214285Y-71800057D01*
X138214285Y-71800057D02*
X138261904Y-71895295D01*
X138261904Y-71895295D02*
X138309523Y-72085771D01*
X138309523Y-72085771D02*
X138309523Y-72323866D01*
X138309523Y-72323866D02*
X138261904Y-72514342D01*
X138261904Y-72514342D02*
X138214285Y-72609580D01*
X138214285Y-72609580D02*
X138166666Y-72657200D01*
X138166666Y-72657200D02*
X138071428Y-72704819D01*
X138071428Y-72704819D02*
X137976190Y-72704819D01*
X137976190Y-72704819D02*
X137880952Y-72657200D01*
X137880952Y-72657200D02*
X137833333Y-72609580D01*
X137833333Y-72609580D02*
X137785714Y-72514342D01*
X137785714Y-72514342D02*
X137738095Y-72323866D01*
X137738095Y-72323866D02*
X137738095Y-72085771D01*
X137738095Y-72085771D02*
X137785714Y-71895295D01*
X137785714Y-71895295D02*
X137833333Y-71800057D01*
X137833333Y-71800057D02*
X137880952Y-71752438D01*
X137880952Y-71752438D02*
X137976190Y-71704819D01*
X93443333Y-100704819D02*
X93110000Y-100228628D01*
X92871905Y-100704819D02*
X92871905Y-99704819D01*
X92871905Y-99704819D02*
X93252857Y-99704819D01*
X93252857Y-99704819D02*
X93348095Y-99752438D01*
X93348095Y-99752438D02*
X93395714Y-99800057D01*
X93395714Y-99800057D02*
X93443333Y-99895295D01*
X93443333Y-99895295D02*
X93443333Y-100038152D01*
X93443333Y-100038152D02*
X93395714Y-100133390D01*
X93395714Y-100133390D02*
X93348095Y-100181009D01*
X93348095Y-100181009D02*
X93252857Y-100228628D01*
X93252857Y-100228628D02*
X92871905Y-100228628D01*
X94300476Y-100038152D02*
X94300476Y-100704819D01*
X94062381Y-99657200D02*
X93824286Y-100371485D01*
X93824286Y-100371485D02*
X94443333Y-100371485D01*
X125023333Y-85854819D02*
X124690000Y-85378628D01*
X124451905Y-85854819D02*
X124451905Y-84854819D01*
X124451905Y-84854819D02*
X124832857Y-84854819D01*
X124832857Y-84854819D02*
X124928095Y-84902438D01*
X124928095Y-84902438D02*
X124975714Y-84950057D01*
X124975714Y-84950057D02*
X125023333Y-85045295D01*
X125023333Y-85045295D02*
X125023333Y-85188152D01*
X125023333Y-85188152D02*
X124975714Y-85283390D01*
X124975714Y-85283390D02*
X124928095Y-85331009D01*
X124928095Y-85331009D02*
X124832857Y-85378628D01*
X124832857Y-85378628D02*
X124451905Y-85378628D01*
X125928095Y-84854819D02*
X125451905Y-84854819D01*
X125451905Y-84854819D02*
X125404286Y-85331009D01*
X125404286Y-85331009D02*
X125451905Y-85283390D01*
X125451905Y-85283390D02*
X125547143Y-85235771D01*
X125547143Y-85235771D02*
X125785238Y-85235771D01*
X125785238Y-85235771D02*
X125880476Y-85283390D01*
X125880476Y-85283390D02*
X125928095Y-85331009D01*
X125928095Y-85331009D02*
X125975714Y-85426247D01*
X125975714Y-85426247D02*
X125975714Y-85664342D01*
X125975714Y-85664342D02*
X125928095Y-85759580D01*
X125928095Y-85759580D02*
X125880476Y-85807200D01*
X125880476Y-85807200D02*
X125785238Y-85854819D01*
X125785238Y-85854819D02*
X125547143Y-85854819D01*
X125547143Y-85854819D02*
X125451905Y-85807200D01*
X125451905Y-85807200D02*
X125404286Y-85759580D01*
X115109580Y-84316666D02*
X115157200Y-84364285D01*
X115157200Y-84364285D02*
X115204819Y-84507142D01*
X115204819Y-84507142D02*
X115204819Y-84602380D01*
X115204819Y-84602380D02*
X115157200Y-84745237D01*
X115157200Y-84745237D02*
X115061961Y-84840475D01*
X115061961Y-84840475D02*
X114966723Y-84888094D01*
X114966723Y-84888094D02*
X114776247Y-84935713D01*
X114776247Y-84935713D02*
X114633390Y-84935713D01*
X114633390Y-84935713D02*
X114442914Y-84888094D01*
X114442914Y-84888094D02*
X114347676Y-84840475D01*
X114347676Y-84840475D02*
X114252438Y-84745237D01*
X114252438Y-84745237D02*
X114204819Y-84602380D01*
X114204819Y-84602380D02*
X114204819Y-84507142D01*
X114204819Y-84507142D02*
X114252438Y-84364285D01*
X114252438Y-84364285D02*
X114300057Y-84316666D01*
X115204819Y-83364285D02*
X115204819Y-83935713D01*
X115204819Y-83649999D02*
X114204819Y-83649999D01*
X114204819Y-83649999D02*
X114347676Y-83745237D01*
X114347676Y-83745237D02*
X114442914Y-83840475D01*
X114442914Y-83840475D02*
X114490533Y-83935713D01*
X208348095Y-100584819D02*
X208348095Y-101394342D01*
X208348095Y-101394342D02*
X208395714Y-101489580D01*
X208395714Y-101489580D02*
X208443333Y-101537200D01*
X208443333Y-101537200D02*
X208538571Y-101584819D01*
X208538571Y-101584819D02*
X208729047Y-101584819D01*
X208729047Y-101584819D02*
X208824285Y-101537200D01*
X208824285Y-101537200D02*
X208871904Y-101489580D01*
X208871904Y-101489580D02*
X208919523Y-101394342D01*
X208919523Y-101394342D02*
X208919523Y-100584819D01*
X209919523Y-101584819D02*
X209348095Y-101584819D01*
X209633809Y-101584819D02*
X209633809Y-100584819D01*
X209633809Y-100584819D02*
X209538571Y-100727676D01*
X209538571Y-100727676D02*
X209443333Y-100822914D01*
X209443333Y-100822914D02*
X209348095Y-100870533D01*
D10*
X142566667Y-111309800D02*
X142709524Y-111357419D01*
X142709524Y-111357419D02*
X142947619Y-111357419D01*
X142947619Y-111357419D02*
X143042857Y-111309800D01*
X143042857Y-111309800D02*
X143090476Y-111262180D01*
X143090476Y-111262180D02*
X143138095Y-111166942D01*
X143138095Y-111166942D02*
X143138095Y-111071704D01*
X143138095Y-111071704D02*
X143090476Y-110976466D01*
X143090476Y-110976466D02*
X143042857Y-110928847D01*
X143042857Y-110928847D02*
X142947619Y-110881228D01*
X142947619Y-110881228D02*
X142757143Y-110833609D01*
X142757143Y-110833609D02*
X142661905Y-110785990D01*
X142661905Y-110785990D02*
X142614286Y-110738371D01*
X142614286Y-110738371D02*
X142566667Y-110643133D01*
X142566667Y-110643133D02*
X142566667Y-110547895D01*
X142566667Y-110547895D02*
X142614286Y-110452657D01*
X142614286Y-110452657D02*
X142661905Y-110405038D01*
X142661905Y-110405038D02*
X142757143Y-110357419D01*
X142757143Y-110357419D02*
X142995238Y-110357419D01*
X142995238Y-110357419D02*
X143138095Y-110405038D01*
X143471429Y-110357419D02*
X143709524Y-111357419D01*
X143709524Y-111357419D02*
X143900000Y-110643133D01*
X143900000Y-110643133D02*
X144090476Y-111357419D01*
X144090476Y-111357419D02*
X144328572Y-110357419D01*
X145138095Y-110357419D02*
X144947619Y-110357419D01*
X144947619Y-110357419D02*
X144852381Y-110405038D01*
X144852381Y-110405038D02*
X144804762Y-110452657D01*
X144804762Y-110452657D02*
X144709524Y-110595514D01*
X144709524Y-110595514D02*
X144661905Y-110785990D01*
X144661905Y-110785990D02*
X144661905Y-111166942D01*
X144661905Y-111166942D02*
X144709524Y-111262180D01*
X144709524Y-111262180D02*
X144757143Y-111309800D01*
X144757143Y-111309800D02*
X144852381Y-111357419D01*
X144852381Y-111357419D02*
X145042857Y-111357419D01*
X145042857Y-111357419D02*
X145138095Y-111309800D01*
X145138095Y-111309800D02*
X145185714Y-111262180D01*
X145185714Y-111262180D02*
X145233333Y-111166942D01*
X145233333Y-111166942D02*
X145233333Y-110928847D01*
X145233333Y-110928847D02*
X145185714Y-110833609D01*
X145185714Y-110833609D02*
X145138095Y-110785990D01*
X145138095Y-110785990D02*
X145042857Y-110738371D01*
X145042857Y-110738371D02*
X144852381Y-110738371D01*
X144852381Y-110738371D02*
X144757143Y-110785990D01*
X144757143Y-110785990D02*
X144709524Y-110833609D01*
X144709524Y-110833609D02*
X144661905Y-110928847D01*
X180566667Y-92309800D02*
X180709524Y-92357419D01*
X180709524Y-92357419D02*
X180947619Y-92357419D01*
X180947619Y-92357419D02*
X181042857Y-92309800D01*
X181042857Y-92309800D02*
X181090476Y-92262180D01*
X181090476Y-92262180D02*
X181138095Y-92166942D01*
X181138095Y-92166942D02*
X181138095Y-92071704D01*
X181138095Y-92071704D02*
X181090476Y-91976466D01*
X181090476Y-91976466D02*
X181042857Y-91928847D01*
X181042857Y-91928847D02*
X180947619Y-91881228D01*
X180947619Y-91881228D02*
X180757143Y-91833609D01*
X180757143Y-91833609D02*
X180661905Y-91785990D01*
X180661905Y-91785990D02*
X180614286Y-91738371D01*
X180614286Y-91738371D02*
X180566667Y-91643133D01*
X180566667Y-91643133D02*
X180566667Y-91547895D01*
X180566667Y-91547895D02*
X180614286Y-91452657D01*
X180614286Y-91452657D02*
X180661905Y-91405038D01*
X180661905Y-91405038D02*
X180757143Y-91357419D01*
X180757143Y-91357419D02*
X180995238Y-91357419D01*
X180995238Y-91357419D02*
X181138095Y-91405038D01*
X181471429Y-91357419D02*
X181709524Y-92357419D01*
X181709524Y-92357419D02*
X181900000Y-91643133D01*
X181900000Y-91643133D02*
X182090476Y-92357419D01*
X182090476Y-92357419D02*
X182328572Y-91357419D01*
X183138095Y-91690752D02*
X183138095Y-92357419D01*
X182900000Y-91309800D02*
X182661905Y-92024085D01*
X182661905Y-92024085D02*
X183280952Y-92024085D01*
D12*
%TO.C,SW5*%
X117900000Y-111900000D02*
X117900000Y-126100000D01*
X117900000Y-126100000D02*
X132100000Y-126100000D01*
X132100000Y-111900000D02*
X117900000Y-111900000D01*
X132100000Y-126100000D02*
X132100000Y-111900000D01*
%TO.C,C2*%
X115880000Y-73030000D02*
X115945000Y-73030000D01*
X115880000Y-76270000D02*
X115880000Y-73030000D01*
X115880000Y-76270000D02*
X115945000Y-76270000D01*
X118055000Y-73030000D02*
X118120000Y-73030000D01*
X118055000Y-76270000D02*
X118120000Y-76270000D01*
X118120000Y-76270000D02*
X118120000Y-73030000D01*
%TO.C,Q1*%
X112900000Y-122550000D02*
X109050000Y-122550000D01*
X108657618Y-123137736D02*
G75*
G02*
X109050001Y-122550001I2302382J-1112264D01*
G01*
X110960000Y-126850000D02*
G75*
G02*
X108603600Y-125348807I0J2600000D01*
G01*
X112900000Y-122550000D02*
G75*
G02*
X113282631Y-123127955I-1940000J-1700000D01*
G01*
X113316399Y-125348807D02*
G75*
G02*
X110960000Y-126849999I-2356399J1098807D01*
G01*
%TO.C,SW8*%
X174900000Y-111900000D02*
X174900000Y-126100000D01*
X174900000Y-126100000D02*
X189100000Y-126100000D01*
X189100000Y-111900000D02*
X174900000Y-111900000D01*
X189100000Y-126100000D02*
X189100000Y-111900000D01*
%TO.C,D1*%
X105290000Y-125795000D02*
X105290000Y-122705000D01*
X99740000Y-124250462D02*
G75*
G02*
X105290000Y-122705170I2990000J462D01*
G01*
X105289999Y-125794830D02*
G75*
G02*
X99740001Y-124249538I-2559999J1544830D01*
G01*
X105230000Y-124250000D02*
G75*
G02*
X100230000Y-124250000I-2500000J0D01*
G01*
X100230000Y-124250000D02*
G75*
G02*
X105230000Y-124250000I2500000J0D01*
G01*
%TO.C,D3*%
X105290000Y-109795000D02*
X105290000Y-106705000D01*
X99740000Y-108250462D02*
G75*
G02*
X105290000Y-106705170I2990000J462D01*
G01*
X105289999Y-109794830D02*
G75*
G02*
X99740001Y-108249538I-2559999J1544830D01*
G01*
X105230000Y-108250000D02*
G75*
G02*
X100230000Y-108250000I-2500000J0D01*
G01*
X100230000Y-108250000D02*
G75*
G02*
X105230000Y-108250000I2500000J0D01*
G01*
%TO.C,SW2*%
X136900000Y-92900000D02*
X136900000Y-107100000D01*
X136900000Y-107100000D02*
X151100000Y-107100000D01*
X151100000Y-92900000D02*
X136900000Y-92900000D01*
X151100000Y-107100000D02*
X151100000Y-92900000D01*
%TO.C,Q3*%
X112900000Y-106550000D02*
X109050000Y-106550000D01*
X108657618Y-107137736D02*
G75*
G02*
X109050001Y-106550001I2302382J-1112264D01*
G01*
X110960000Y-110850000D02*
G75*
G02*
X108603600Y-109348807I0J2600000D01*
G01*
X112900000Y-106550000D02*
G75*
G02*
X113282631Y-107127955I-1940000J-1700000D01*
G01*
X113316399Y-109348807D02*
G75*
G02*
X110960000Y-110849999I-2356399J1098807D01*
G01*
%TO.C,R2*%
X90340000Y-110230000D02*
X90340000Y-110560000D01*
X90340000Y-112970000D02*
X90340000Y-112640000D01*
X96880000Y-110230000D02*
X90340000Y-110230000D01*
X96880000Y-110560000D02*
X96880000Y-110230000D01*
X96880000Y-112640000D02*
X96880000Y-112970000D01*
X96880000Y-112970000D02*
X90340000Y-112970000D01*
%TO.C,SW7*%
X155900000Y-111900000D02*
X155900000Y-126100000D01*
X155900000Y-126100000D02*
X170100000Y-126100000D01*
X170100000Y-111900000D02*
X155900000Y-111900000D01*
X170100000Y-126100000D02*
X170100000Y-111900000D01*
%TO.C,Q2*%
X112900000Y-114550000D02*
X109050000Y-114550000D01*
X108657618Y-115137736D02*
G75*
G02*
X109050001Y-114550001I2302382J-1112264D01*
G01*
X110960000Y-118850000D02*
G75*
G02*
X108603600Y-117348807I0J2600000D01*
G01*
X112900000Y-114550000D02*
G75*
G02*
X113282631Y-115127955I-1940000J-1700000D01*
G01*
X113316399Y-117348807D02*
G75*
G02*
X110960000Y-118849999I-2356399J1098807D01*
G01*
%TO.C,R3*%
X90340000Y-104430000D02*
X90340000Y-104760000D01*
X90340000Y-107170000D02*
X90340000Y-106840000D01*
X96880000Y-104430000D02*
X90340000Y-104430000D01*
X96880000Y-104760000D02*
X96880000Y-104430000D01*
X96880000Y-106840000D02*
X96880000Y-107170000D01*
X96880000Y-107170000D02*
X90340000Y-107170000D01*
%TO.C,R6*%
X121920000Y-72130000D02*
X121920000Y-72460000D01*
X121920000Y-74870000D02*
X121920000Y-74540000D01*
X128460000Y-72130000D02*
X121920000Y-72130000D01*
X128460000Y-72460000D02*
X128460000Y-72130000D01*
X128460000Y-74540000D02*
X128460000Y-74870000D01*
X128460000Y-74870000D02*
X121920000Y-74870000D01*
%TO.C,Q4*%
X112900000Y-98550000D02*
X109050000Y-98550000D01*
X108657618Y-99137736D02*
G75*
G02*
X109050001Y-98550001I2302382J-1112264D01*
G01*
X110960000Y-102850000D02*
G75*
G02*
X108603600Y-101348807I0J2600000D01*
G01*
X112900000Y-98550000D02*
G75*
G02*
X113282631Y-99127955I-1940000J-1700000D01*
G01*
X113316399Y-101348807D02*
G75*
G02*
X110960000Y-102849999I-2356399J1098807D01*
G01*
%TO.C,R8*%
X121920000Y-75980000D02*
X128460000Y-75980000D01*
X121920000Y-76310000D02*
X121920000Y-75980000D01*
X121920000Y-78390000D02*
X121920000Y-78720000D01*
X121920000Y-78720000D02*
X128460000Y-78720000D01*
X128460000Y-75980000D02*
X128460000Y-76310000D01*
X128460000Y-78720000D02*
X128460000Y-78390000D01*
%TO.C,D2*%
X105290000Y-117795000D02*
X105290000Y-114705000D01*
X99740000Y-116250462D02*
G75*
G02*
X105290000Y-114705170I2990000J462D01*
G01*
X105289999Y-117794830D02*
G75*
G02*
X99740001Y-116249538I-2559999J1544830D01*
G01*
X105230000Y-116250000D02*
G75*
G02*
X100230000Y-116250000I-2500000J0D01*
G01*
X100230000Y-116250000D02*
G75*
G02*
X105230000Y-116250000I2500000J0D01*
G01*
%TO.C,R1*%
X90340000Y-115230000D02*
X90340000Y-115560000D01*
X90340000Y-117970000D02*
X90340000Y-117640000D01*
X96880000Y-115230000D02*
X90340000Y-115230000D01*
X96880000Y-115560000D02*
X96880000Y-115230000D01*
X96880000Y-117640000D02*
X96880000Y-117970000D01*
X96880000Y-117970000D02*
X90340000Y-117970000D01*
%TO.C,D4*%
X105290000Y-101795000D02*
X105290000Y-98705000D01*
X99740000Y-100250462D02*
G75*
G02*
X105290000Y-98705170I2990000J462D01*
G01*
X105289999Y-101794830D02*
G75*
G02*
X99740001Y-100249538I-2559999J1544830D01*
G01*
X105230000Y-100250000D02*
G75*
G02*
X100230000Y-100250000I-2500000J0D01*
G01*
X100230000Y-100250000D02*
G75*
G02*
X105230000Y-100250000I2500000J0D01*
G01*
%TO.C,SW9*%
X96020000Y-79700000D02*
X96020000Y-93900000D01*
X96020000Y-93900000D02*
X110220000Y-93900000D01*
X110220000Y-79700000D02*
X96020000Y-79700000D01*
X110220000Y-93900000D02*
X110220000Y-79700000D01*
%TO.C,R7*%
X121920000Y-80030000D02*
X121920000Y-80360000D01*
X121920000Y-82770000D02*
X121920000Y-82440000D01*
X128460000Y-80030000D02*
X121920000Y-80030000D01*
X128460000Y-80360000D02*
X128460000Y-80030000D01*
X128460000Y-82440000D02*
X128460000Y-82770000D01*
X128460000Y-82770000D02*
X121920000Y-82770000D01*
%TO.C,SW1*%
X117900000Y-92900000D02*
X117900000Y-107100000D01*
X117900000Y-107100000D02*
X132100000Y-107100000D01*
X132100000Y-92900000D02*
X117900000Y-92900000D01*
X132100000Y-107100000D02*
X132100000Y-92900000D01*
%TO.C,SW3*%
X155900000Y-92900000D02*
X155900000Y-107100000D01*
X155900000Y-107100000D02*
X170100000Y-107100000D01*
X170100000Y-92900000D02*
X155900000Y-92900000D01*
X170100000Y-107100000D02*
X170100000Y-92900000D01*
D10*
%TO.C,U2*%
X188800000Y-84460000D02*
X190800000Y-84460000D01*
X190800000Y-77460000D02*
X188800000Y-75460000D01*
X190800000Y-84460000D02*
X190800000Y-77460000D01*
X153000000Y-73460000D02*
X188800000Y-73460000D01*
X188800000Y-84460000D01*
X153000000Y-84460000D01*
X153000000Y-73460000D01*
X158000000Y-75460000D02*
X187000000Y-75460000D01*
X187000000Y-82460000D01*
X158000000Y-82460000D01*
X158000000Y-75460000D01*
D12*
%TO.C,SW10*%
X134190000Y-73190000D02*
X138800000Y-73190000D01*
X134190000Y-75950000D02*
X134190000Y-73190000D01*
X134190000Y-78050000D02*
X134190000Y-78650000D01*
X134190000Y-80350000D02*
X134190000Y-81150000D01*
X134190000Y-82850000D02*
X134190000Y-85810000D01*
X138800000Y-85810000D02*
X134190000Y-85810000D01*
X143200000Y-73200000D02*
X147810000Y-73200000D01*
X147810000Y-73200000D02*
X147810000Y-75900000D01*
X147810000Y-78100000D02*
X147810000Y-80900000D01*
X147810000Y-83100000D02*
X147810000Y-85810000D01*
X147810000Y-85810000D02*
X143200000Y-85810000D01*
%TO.C,R4*%
X90340000Y-98880000D02*
X90340000Y-99210000D01*
X90340000Y-101620000D02*
X90340000Y-101290000D01*
X96880000Y-98880000D02*
X90340000Y-98880000D01*
X96880000Y-99210000D02*
X96880000Y-98880000D01*
X96880000Y-101290000D02*
X96880000Y-101620000D01*
X96880000Y-101620000D02*
X90340000Y-101620000D01*
%TO.C,R5*%
X121920000Y-84030000D02*
X121920000Y-84360000D01*
X121920000Y-86770000D02*
X121920000Y-86440000D01*
X128460000Y-84030000D02*
X121920000Y-84030000D01*
X128460000Y-84360000D02*
X128460000Y-84030000D01*
X128460000Y-86440000D02*
X128460000Y-86770000D01*
X128460000Y-86770000D02*
X121920000Y-86770000D01*
%TO.C,C1*%
X115880000Y-82530000D02*
X115945000Y-82530000D01*
X115880000Y-85770000D02*
X115880000Y-82530000D01*
X115880000Y-85770000D02*
X115945000Y-85770000D01*
X118055000Y-82530000D02*
X118120000Y-82530000D01*
X118055000Y-85770000D02*
X118120000Y-85770000D01*
X118120000Y-85770000D02*
X118120000Y-82530000D01*
%TO.C,U1*%
X198610000Y-75630000D02*
X198610000Y-75930000D01*
X198610000Y-75630000D02*
X219610000Y-75630000D01*
X198610000Y-78030000D02*
X198610000Y-78430000D01*
X198610000Y-78297000D02*
X201617000Y-78297000D01*
X198610000Y-80630000D02*
X198610000Y-81030000D01*
X198610000Y-83130000D02*
X198610000Y-83530000D01*
X198610000Y-85730000D02*
X198610000Y-86130000D01*
X198610000Y-88230000D02*
X198610000Y-88630000D01*
X198610000Y-90730000D02*
X198610000Y-91130000D01*
X198610000Y-93330000D02*
X198610000Y-93730000D01*
X198610000Y-95830000D02*
X198610000Y-96230000D01*
X198610000Y-98430000D02*
X198610000Y-98830000D01*
X198610000Y-100930000D02*
X198610000Y-101330000D01*
X198610000Y-103430000D02*
X198610000Y-103830000D01*
X198610000Y-106030000D02*
X198610000Y-106430000D01*
X198610000Y-108530000D02*
X198610000Y-108930000D01*
X198610000Y-111130000D02*
X198610000Y-111530000D01*
X198610000Y-113630000D02*
X198610000Y-114030000D01*
X198610000Y-116230000D02*
X198610000Y-116630000D01*
X198610000Y-118730000D02*
X198610000Y-119130000D01*
X198610000Y-121230000D02*
X198610000Y-121630000D01*
X198610000Y-123830000D02*
X198610000Y-124230000D01*
X201617000Y-78297000D02*
X201617000Y-75630000D01*
X205410000Y-126630000D02*
X198610000Y-126630000D01*
X205410000Y-126630000D02*
X198610000Y-126630000D01*
X207610000Y-126630000D02*
X208010000Y-126630000D01*
X207610000Y-126630000D02*
X208010000Y-126630000D01*
X210210000Y-126630000D02*
X210610000Y-126630000D01*
X210210000Y-126630000D02*
X210610000Y-126630000D01*
X219610000Y-75630000D02*
X219610000Y-75930000D01*
X219610000Y-78030000D02*
X219610000Y-78430000D01*
X219610000Y-80630000D02*
X219610000Y-81030000D01*
X219610000Y-83130000D02*
X219610000Y-83530000D01*
X219610000Y-85730000D02*
X219610000Y-86130000D01*
X219610000Y-88230000D02*
X219610000Y-88630000D01*
X219610000Y-90730000D02*
X219610000Y-91130000D01*
X219610000Y-93330000D02*
X219610000Y-93730000D01*
X219610000Y-95830000D02*
X219610000Y-96230000D01*
X219610000Y-98430000D02*
X219610000Y-98830000D01*
X219610000Y-100930000D02*
X219610000Y-101330000D01*
X219610000Y-103430000D02*
X219610000Y-103830000D01*
X219610000Y-106030000D02*
X219610000Y-106430000D01*
X219610000Y-108530000D02*
X219610000Y-108930000D01*
X219610000Y-111130000D02*
X219610000Y-111530000D01*
X219610000Y-113630000D02*
X219610000Y-114030000D01*
X219610000Y-116230000D02*
X219610000Y-116630000D01*
X219610000Y-118730000D02*
X219610000Y-119130000D01*
X219610000Y-121230000D02*
X219610000Y-121630000D01*
X219610000Y-123830000D02*
X219610000Y-124230000D01*
X219610000Y-126630000D02*
X212810000Y-126630000D01*
%TO.C,SW6*%
X136900000Y-111900000D02*
X136900000Y-126100000D01*
X136900000Y-126100000D02*
X151100000Y-126100000D01*
X151100000Y-111900000D02*
X136900000Y-111900000D01*
X151100000Y-126100000D02*
X151100000Y-111900000D01*
%TO.C,SW4*%
X174900000Y-92900000D02*
X174900000Y-107100000D01*
X174900000Y-107100000D02*
X189100000Y-107100000D01*
X189100000Y-92900000D02*
X174900000Y-92900000D01*
X189100000Y-107100000D02*
X189100000Y-92900000D01*
%TD*%
M02*
