<?xml version="1.0" standalone="no"?>
 <!DOCTYPE svg PUBLIC "-//W3C//DTD SVG 1.1//EN" 
 "http://www.w3.org/Graphics/SVG/1.1/DTD/svg11.dtd"> 
<svg
  xmlns:svg="http://www.w3.org/2000/svg"
  xmlns="http://www.w3.org/2000/svg"
  xmlns:xlink="http://www.w3.org/1999/xlink"
  version="1.1"
  width="297.0022mm" height="210.0072mm" viewBox="0.0000 0.0000 297.0022 210.0072">
<title>SVG Image created as led-cube-pcb-F_Mask.svg date 2026/05/16 15:21:28 </title>
  <desc>Image generated by PCBNEW </desc>
<g style="fill:#000000; fill-opacity:1.0000;stroke:#000000; stroke-opacity:1.0000;
stroke-linecap:round; stroke-linejoin:round;"
 transform="translate(0 0) scale(1 1)">
</g>
<g style="fill:#D864FF; fill-opacity:0.4000; stroke:none;">
<circle cx="165.0000" cy="129.3800" r="1.1000" /> 
</g>
<g style="fill:#D864FF; fill-opacity:0.4000; stroke:none;">
<circle cx="165.0000" cy="137.0000" r="1.1000" /> 
</g>
<g style="fill:#D864FF; fill-opacity:0.4000; stroke:none;">
<circle cx="181.0000" cy="136.8100" r="1.1000" /> 
</g>
<g style="fill:#D864FF; fill-opacity:0.4000; stroke:none;">
<circle cx="181.0000" cy="129.1900" r="1.1000" /> 
</g>
<g style="fill:#D864FF; fill-opacity:0.4000; stroke:none;">
<circle cx="119.3500" cy="92.0000" r="0.8500" /> 
</g>
<g style="fill:#D864FF; fill-opacity:0.4000; stroke:none;">
<circle cx="119.3500" cy="90.0000" r="0.8500" /> 
</g>
<g style="fill:#D864FF; fill-opacity:0.4000; stroke:none;">
<circle cx="119.3500" cy="88.0000" r="0.8500" /> 
</g>
<g style="fill:#D864FF; fill-opacity:0.4000; stroke:none;">
<circle cx="119.3500" cy="86.0000" r="0.8500" /> 
</g>
<g style="fill:#D864FF; fill-opacity:0.4000; stroke:none;">
<circle cx="119.3500" cy="84.0000" r="0.8500" /> 
</g>
<g style="fill:#D864FF; fill-opacity:0.4000; stroke:none;">
<circle cx="119.3500" cy="82.0000" r="0.8500" /> 
</g>
<g style="fill:#D864FF; fill-opacity:0.4000; stroke:none;">
<circle cx="108.3500" cy="93.0000" r="2.0000" /> 
</g>
<g style="fill:#D864FF; fill-opacity:0.4000; stroke:none;">
<circle cx="108.3500" cy="81.0000" r="2.0000" /> 
</g>
<g style="fill:#D864FF; fill-opacity:0.4000; stroke:none;">
<circle cx="130.6200" cy="76.0000" r="1.1000" /> 
</g>
<g style="fill:#D864FF; fill-opacity:0.4000; stroke:none;">
<circle cx="123.0000" cy="76.0000" r="1.1000" /> 
</g>
<g style="fill:#D864FF; fill-opacity:0.4000; stroke:none;">
<circle cx="145.0000" cy="125.0000" r="0.9000" /> 
</g>
<g style="fill:#D864FF; fill-opacity:0.4000; stroke:none;">
<circle cx="145.0000" cy="100.0000" r="0.9000" /> 
</g>
<g style="fill:#D864FF; fill-opacity:0.4000; stroke:none;">
<circle cx="145.0000" cy="75.0000" r="0.9000" /> 
</g>
<g style="fill:#D864FF; fill-opacity:0.4000; stroke:none;">
<circle cx="170.0000" cy="125.0000" r="0.9000" /> 
</g>
<g style="fill:#D864FF; fill-opacity:0.4000; stroke:none;">
<circle cx="170.0000" cy="100.0000" r="0.9000" /> 
</g>
<g style="fill:#D864FF; fill-opacity:0.4000; stroke:none;">
<circle cx="170.0000" cy="75.0000" r="0.9000" /> 
</g>
<g style="fill:#D864FF; fill-opacity:0.4000; stroke:none;">
<circle cx="195.0000" cy="125.0000" r="0.9000" /> 
</g>
<g style="fill:#D864FF; fill-opacity:0.4000; stroke:none;">
<circle cx="195.0000" cy="100.0000" r="0.9000" /> 
</g>
<g style="fill:#D864FF; fill-opacity:0.4000; stroke:none;">
<circle cx="195.0000" cy="75.0000" r="0.9000" /> 
</g>
<g style="fill:#D864FF; fill-opacity:0.4000; stroke:none;">
<circle cx="150.0000" cy="120.0000" r="0.9000" /> 
</g>
<g style="fill:#D864FF; fill-opacity:0.4000; stroke:none;">
<circle cx="150.0000" cy="115.0000" r="0.9000" /> 
</g>
<g style="fill:#D864FF; fill-opacity:0.4000; stroke:none;">
<circle cx="150.0000" cy="110.0000" r="0.9000" /> 
<path style="fill:#D864FF; fill-opacity:0.4000; stroke:none;fill-rule:evenodd;"
d="M 144.0325,144.0000
144.0325,146.0000
142.1275,146.0000
142.1275,144.0000
Z" /> 
</g>
<g style="fill:none; 
stroke:#D864FF; stroke-width:1.9050; stroke-opacity:1; 
stroke-linecap:round; stroke-linejoin:round;">
<path d="M140.5400 145.0475
L140.5400 144.9525
" />
<path d="M138.0000 145.0475
L138.0000 144.9525
" />
<path style="fill:#D864FF; fill-opacity:0.4000; stroke:none;fill-rule:evenodd;"
d="M 133.9200,77.0000
133.9200,75.0000
135.9200,75.0000
135.9200,77.0000
Z" /> 
</g>
<g style="fill:#D864FF; fill-opacity:0.4000; stroke:none;">
<circle cx="137.4600" cy="76.0000" r="1.0000" /> 
</g>
<g style="fill:#D864FF; fill-opacity:0.4000; stroke:none;">
<circle cx="140.0000" cy="76.0000" r="1.0000" /> 
</g>
<g style="fill:#D864FF; fill-opacity:0.4000; stroke:none;">
<circle cx="177.0000" cy="136.8100" r="1.1000" /> 
</g>
<g style="fill:#D864FF; fill-opacity:0.4000; stroke:none;">
<circle cx="177.0000" cy="129.1900" r="1.1000" /> 
<path style="fill:#D864FF; fill-opacity:0.4000; stroke:none;fill-rule:evenodd;"
d="M 128.2000,145.4500
128.2190,145.3543
128.2732,145.2732
128.3543,145.2190
128.4500,145.2000
129.5500,145.2000
129.6457,145.2190
129.7268,145.2732
129.7810,145.3543
129.8000,145.4500
129.8000,146.5500
129.7810,146.6457
129.7268,146.7268
129.6457,146.7810
129.5500,146.8000
128.4500,146.8000
128.3543,146.7810
128.2732,146.7268
128.2190,146.6457
128.2000,146.5500
Z" /> 
</g>
<g style="fill:#D864FF; fill-opacity:0.4000; stroke:none;">
<circle cx="131.0000" cy="146.0000" r="0.8000" /> 
<path style="fill:#D864FF; fill-opacity:0.4000; stroke:none;fill-rule:evenodd;"
d="M 133.9200,83.0000
133.9200,81.0000
135.9200,81.0000
135.9200,83.0000
Z" /> 
</g>
<g style="fill:#D864FF; fill-opacity:0.4000; stroke:none;">
<circle cx="137.4600" cy="82.0000" r="1.0000" /> 
</g>
<g style="fill:#D864FF; fill-opacity:0.4000; stroke:none;">
<circle cx="140.0000" cy="82.0000" r="1.0000" /> 
</g>
<g style="fill:#D864FF; fill-opacity:0.4000; stroke:none;">
<circle cx="173.0000" cy="136.8100" r="1.1000" /> 
</g>
<g style="fill:#D864FF; fill-opacity:0.4000; stroke:none;">
<circle cx="173.0000" cy="129.1900" r="1.1000" /> 
</g>
<g style="fill:#D864FF; fill-opacity:0.4000; stroke:none;">
<circle cx="169.0000" cy="136.8100" r="1.1000" /> 
</g>
<g style="fill:#D864FF; fill-opacity:0.4000; stroke:none;">
<circle cx="169.0000" cy="129.1900" r="1.1000" /> 
</g>
<g style="fill:#D864FF; fill-opacity:0.4000; stroke:none;">
<circle cx="105.0000" cy="72.5000" r="0.9000" /> 
</g>
<g style="fill:#D864FF; fill-opacity:0.4000; stroke:none;">
<circle cx="111.5000" cy="72.5000" r="0.9000" /> 
</g>
<g style="fill:#D864FF; fill-opacity:0.4000; stroke:none;">
<circle cx="105.0000" cy="77.0000" r="0.9000" /> 
</g>
<g style="fill:#D864FF; fill-opacity:0.4000; stroke:none;">
<circle cx="111.5000" cy="77.0000" r="0.9000" /> 
<path style="fill:#D864FF; fill-opacity:0.4000; stroke:none;fill-rule:evenodd;"
d="M 151.9000,145.6500
151.8810,145.7457
151.8268,145.8268
151.7457,145.8810
151.6500,145.9000
150.3500,145.9000
150.2543,145.8810
150.1732,145.8268
150.1190,145.7457
150.1000,145.6500
150.1000,144.3500
150.1190,144.2543
150.1732,144.1732
150.2543,144.1190
150.3500,144.1000
151.6500,144.1000
151.7457,144.1190
151.8268,144.1732
151.8810,144.2543
151.9000,144.3500
Z" /> 
</g>
<g style="fill:#D864FF; fill-opacity:0.4000; stroke:none;">
<circle cx="148.4600" cy="145.0000" r="0.9000" /> 
</g>
<g style="fill:#D864FF; fill-opacity:0.4000; stroke:none;">
<circle cx="130.6200" cy="88.0000" r="1.1000" /> 
</g>
<g style="fill:#D864FF; fill-opacity:0.4000; stroke:none;">
<circle cx="123.0000" cy="88.0000" r="1.1000" /> 
</g>
<g style="fill:#D864FF; fill-opacity:0.4000; stroke:none;">
<circle cx="130.6200" cy="82.0000" r="1.1000" /> 
</g>
<g style="fill:#D864FF; fill-opacity:0.4000; stroke:none;">
<circle cx="123.0000" cy="82.0000" r="1.1000" /> 
</g>
<g style="fill:#D864FF; fill-opacity:0.4000; stroke:none;">
<circle cx="189.0000" cy="136.8100" r="1.1000" /> 
</g>
<g style="fill:#D864FF; fill-opacity:0.4000; stroke:none;">
<circle cx="189.0000" cy="129.1900" r="1.1000" /> 
</g>
<g style="fill:#D864FF; fill-opacity:0.4000; stroke:none;">
<circle cx="197.0000" cy="136.8100" r="1.1000" /> 
</g>
<g style="fill:#D864FF; fill-opacity:0.4000; stroke:none;">
<circle cx="197.0000" cy="129.1900" r="1.1000" /> 
<path style="fill:#D864FF; fill-opacity:0.4000; stroke:none;fill-rule:evenodd;"
d="M 128.3900,95.5600
128.4090,95.4643
128.4632,95.3832
128.5443,95.3290
128.6400,95.3100
129.7400,95.3100
129.8357,95.3290
129.9168,95.3832
129.9710,95.4643
129.9900,95.5600
129.9900,96.6600
129.9710,96.7557
129.9168,96.8368
129.8357,96.8910
129.7400,96.9100
128.6400,96.9100
128.5443,96.8910
128.4632,96.8368
128.4090,96.7557
128.3900,96.6600
Z" /> 
</g>
<g style="fill:#D864FF; fill-opacity:0.4000; stroke:none;">
<circle cx="129.1900" cy="98.6500" r="0.8000" /> 
</g>
<g style="fill:#D864FF; fill-opacity:0.4000; stroke:none;">
<circle cx="129.1900" cy="101.1900" r="0.8000" /> 
</g>
<g style="fill:#D864FF; fill-opacity:0.4000; stroke:none;">
<circle cx="129.1900" cy="103.7300" r="0.8000" /> 
</g>
<g style="fill:#D864FF; fill-opacity:0.4000; stroke:none;">
<circle cx="129.1900" cy="106.2700" r="0.8000" /> 
</g>
<g style="fill:#D864FF; fill-opacity:0.4000; stroke:none;">
<circle cx="129.1900" cy="108.8100" r="0.8000" /> 
</g>
<g style="fill:#D864FF; fill-opacity:0.4000; stroke:none;">
<circle cx="129.1900" cy="111.3500" r="0.8000" /> 
</g>
<g style="fill:#D864FF; fill-opacity:0.4000; stroke:none;">
<circle cx="129.1900" cy="113.8900" r="0.8000" /> 
</g>
<g style="fill:#D864FF; fill-opacity:0.4000; stroke:none;">
<circle cx="136.8100" cy="113.8900" r="0.8000" /> 
</g>
<g style="fill:#D864FF; fill-opacity:0.4000; stroke:none;">
<circle cx="136.8100" cy="111.3500" r="0.8000" /> 
</g>
<g style="fill:#D864FF; fill-opacity:0.4000; stroke:none;">
<circle cx="136.8100" cy="108.8100" r="0.8000" /> 
</g>
<g style="fill:#D864FF; fill-opacity:0.4000; stroke:none;">
<circle cx="136.8100" cy="106.2700" r="0.8000" /> 
</g>
<g style="fill:#D864FF; fill-opacity:0.4000; stroke:none;">
<circle cx="136.8100" cy="103.7300" r="0.8000" /> 
</g>
<g style="fill:#D864FF; fill-opacity:0.4000; stroke:none;">
<circle cx="136.8100" cy="101.1900" r="0.8000" /> 
</g>
<g style="fill:#D864FF; fill-opacity:0.4000; stroke:none;">
<circle cx="136.8100" cy="98.6500" r="0.8000" /> 
</g>
<g style="fill:#D864FF; fill-opacity:0.4000; stroke:none;">
<circle cx="136.8100" cy="96.1100" r="0.8000" /> 
<path style="fill:#D864FF; fill-opacity:0.4000; stroke:none;fill-rule:evenodd;"
d="M 133.9200,89.0000
133.9200,87.0000
135.9200,87.0000
135.9200,89.0000
Z" /> 
</g>
<g style="fill:#D864FF; fill-opacity:0.4000; stroke:none;">
<circle cx="137.4600" cy="88.0000" r="1.0000" /> 
</g>
<g style="fill:#D864FF; fill-opacity:0.4000; stroke:none;">
<circle cx="140.0000" cy="88.0000" r="1.0000" /> 
</g>
<g style="fill:#D864FF; fill-opacity:0.4000; stroke:none;">
<circle cx="148.8580" cy="141.0000" r="0.9000" /> 
</g>
<g style="fill:#D864FF; fill-opacity:0.4000; stroke:none;">
<circle cx="142.0000" cy="141.0000" r="0.9000" /> 
<path style="fill:#D864FF; fill-opacity:0.4000; stroke:none;fill-rule:evenodd;"
d="M 128.5800,118.8300
128.5990,118.7343
128.6532,118.6532
128.7343,118.5990
128.8300,118.5800
129.9300,118.5800
130.0257,118.5990
130.1068,118.6532
130.1610,118.7343
130.1800,118.8300
130.1800,119.9300
130.1610,120.0257
130.1068,120.1068
130.0257,120.1610
129.9300,120.1800
128.8300,120.1800
128.7343,120.1610
128.6532,120.1068
128.5990,120.0257
128.5800,119.9300
Z" /> 
</g>
<g style="fill:#D864FF; fill-opacity:0.4000; stroke:none;">
<circle cx="129.3800" cy="121.9200" r="0.8000" /> 
</g>
<g style="fill:#D864FF; fill-opacity:0.4000; stroke:none;">
<circle cx="129.3800" cy="124.4600" r="0.8000" /> 
</g>
<g style="fill:#D864FF; fill-opacity:0.4000; stroke:none;">
<circle cx="129.3800" cy="127.0000" r="0.8000" /> 
</g>
<g style="fill:#D864FF; fill-opacity:0.4000; stroke:none;">
<circle cx="129.3800" cy="129.5400" r="0.8000" /> 
</g>
<g style="fill:#D864FF; fill-opacity:0.4000; stroke:none;">
<circle cx="129.3800" cy="132.0800" r="0.8000" /> 
</g>
<g style="fill:#D864FF; fill-opacity:0.4000; stroke:none;">
<circle cx="129.3800" cy="134.6200" r="0.8000" /> 
</g>
<g style="fill:#D864FF; fill-opacity:0.4000; stroke:none;">
<circle cx="129.3800" cy="137.1600" r="0.8000" /> 
</g>
<g style="fill:#D864FF; fill-opacity:0.4000; stroke:none;">
<circle cx="137.0000" cy="137.1600" r="0.8000" /> 
</g>
<g style="fill:#D864FF; fill-opacity:0.4000; stroke:none;">
<circle cx="137.0000" cy="134.6200" r="0.8000" /> 
</g>
<g style="fill:#D864FF; fill-opacity:0.4000; stroke:none;">
<circle cx="137.0000" cy="132.0800" r="0.8000" /> 
</g>
<g style="fill:#D864FF; fill-opacity:0.4000; stroke:none;">
<circle cx="137.0000" cy="129.5400" r="0.8000" /> 
</g>
<g style="fill:#D864FF; fill-opacity:0.4000; stroke:none;">
<circle cx="137.0000" cy="127.0000" r="0.8000" /> 
</g>
<g style="fill:#D864FF; fill-opacity:0.4000; stroke:none;">
<circle cx="137.0000" cy="124.4600" r="0.8000" /> 
</g>
<g style="fill:#D864FF; fill-opacity:0.4000; stroke:none;">
<circle cx="137.0000" cy="121.9200" r="0.8000" /> 
</g>
<g style="fill:#D864FF; fill-opacity:0.4000; stroke:none;">
<circle cx="137.0000" cy="119.3800" r="0.8000" /> 
</g>
<g style="fill:#D864FF; fill-opacity:0.4000; stroke:none;">
<circle cx="185.0000" cy="136.8100" r="1.1000" /> 
</g>
<g style="fill:#D864FF; fill-opacity:0.4000; stroke:none;">
<circle cx="185.0000" cy="129.1900" r="1.1000" /> 
</g>
<g style="fill:#D864FF; fill-opacity:0.4000; stroke:none;">
<circle cx="133.9200" cy="141.0000" r="0.9000" /> 
</g>
<g style="fill:#D864FF; fill-opacity:0.4000; stroke:none;">
<circle cx="139.0000" cy="141.0000" r="0.9000" /> 
</g>
<g style="fill:#D864FF; fill-opacity:0.4000; stroke:none;">
<circle cx="122.2800" cy="146.8200" r="1.0000" /> 
<circle cx="122.2800" cy="144.2800" r="1.0000" /> 
<path style="fill:#D864FF; fill-opacity:0.4000; stroke:none;fill-rule:evenodd;"
d="M 123.2800,140.7400
123.2800,142.7400
121.2800,142.7400
121.2800,140.7400
Z" /> 
<circle cx="122.2800" cy="139.2000" r="1.0000" /> 
<circle cx="122.2800" cy="136.6600" r="1.0000" /> 
<circle cx="122.2800" cy="134.1200" r="1.0000" /> 
<circle cx="122.2800" cy="131.5800" r="1.0000" /> 
<path style="fill:#D864FF; fill-opacity:0.4000; stroke:none;fill-rule:evenodd;"
d="M 123.2800,128.0400
123.2800,130.0400
121.2800,130.0400
121.2800,128.0400
Z" /> 
<circle cx="122.2800" cy="126.5000" r="1.0000" /> 
<circle cx="122.2800" cy="123.9600" r="1.0000" /> 
<circle cx="122.2800" cy="121.4200" r="1.0000" /> 
<circle cx="122.2800" cy="118.8800" r="1.0000" /> 
<path style="fill:#D864FF; fill-opacity:0.4000; stroke:none;fill-rule:evenodd;"
d="M 123.2800,115.3400
123.2800,117.3400
121.2800,117.3400
121.2800,115.3400
Z" /> 
<circle cx="122.2800" cy="113.8000" r="1.0000" /> 
<circle cx="122.2800" cy="111.2600" r="1.0000" /> 
<circle cx="122.2800" cy="108.7200" r="1.0000" /> 
<circle cx="122.2800" cy="106.1800" r="1.0000" /> 
<path style="fill:#D864FF; fill-opacity:0.4000; stroke:none;fill-rule:evenodd;"
d="M 123.2800,102.6400
123.2800,104.6400
121.2800,104.6400
121.2800,102.6400
Z" /> 
<circle cx="122.2800" cy="101.1000" r="1.0000" /> 
<circle cx="122.2800" cy="98.5600" r="1.0000" /> 
<circle cx="104.5000" cy="98.5600" r="1.0000" /> 
<circle cx="104.5000" cy="101.1000" r="1.0000" /> 
<path style="fill:#D864FF; fill-opacity:0.4000; stroke:none;fill-rule:evenodd;"
d="M 105.5000,102.6400
105.5000,104.6400
103.5000,104.6400
103.5000,102.6400
Z" /> 
<circle cx="104.5000" cy="106.1800" r="1.0000" /> 
<circle cx="104.5000" cy="108.7200" r="1.0000" /> 
<circle cx="104.5000" cy="111.2600" r="1.0000" /> 
<circle cx="104.5000" cy="113.8000" r="1.0000" /> 
<path style="fill:#D864FF; fill-opacity:0.4000; stroke:none;fill-rule:evenodd;"
d="M 105.5000,115.3400
105.5000,117.3400
103.5000,117.3400
103.5000,115.3400
Z" /> 
<circle cx="104.5000" cy="118.8800" r="1.0000" /> 
<circle cx="104.5000" cy="121.4200" r="1.0000" /> 
<circle cx="104.5000" cy="123.9600" r="1.0000" /> 
<circle cx="104.5000" cy="126.5000" r="1.0000" /> 
<path style="fill:#D864FF; fill-opacity:0.4000; stroke:none;fill-rule:evenodd;"
d="M 105.5000,128.0400
105.5000,130.0400
103.5000,130.0400
103.5000,128.0400
Z" /> 
<circle cx="104.5000" cy="131.5800" r="1.0000" /> 
<circle cx="104.5000" cy="134.1200" r="1.0000" /> 
<circle cx="104.5000" cy="136.6600" r="1.0000" /> 
<circle cx="104.5000" cy="139.2000" r="1.0000" /> 
<path style="fill:#D864FF; fill-opacity:0.4000; stroke:none;fill-rule:evenodd;"
d="M 105.5000,140.7400
105.5000,142.7400
103.5000,142.7400
103.5000,140.7400
Z" /> 
<circle cx="104.5000" cy="144.2800" r="1.0000" /> 
<circle cx="104.5000" cy="146.8200" r="1.0000" /> 
<circle cx="193.0000" cy="136.8100" r="1.1000" /> 
</g>
<g style="fill:#D864FF; fill-opacity:0.4000; stroke:none;">
<circle cx="193.0000" cy="129.1900" r="1.1000" /> 
</g> 
</svg>
