<?xml version="1.0" encoding="UTF-8" standalone="no"?>
<!-- Created with Inkscape (http://www.inkscape.org/) -->

<svg
   width="150mm"
   height="120mm"
   viewBox="0 0 150 120"
   version="1.1"
   id="svg70796"
   xml:space="preserve"
   inkscape:version="1.2.2 (b0a8486541, 2022-12-01)"
   sodipodi:docname="led-cube-base.svg"
   xmlns:inkscape="http://www.inkscape.org/namespaces/inkscape"
   xmlns:sodipodi="http://sodipodi.sourceforge.net/DTD/sodipodi-0.dtd"
   xmlns:xlink="http://www.w3.org/1999/xlink"
   xmlns="http://www.w3.org/2000/svg"
   xmlns:svg="http://www.w3.org/2000/svg"><sodipodi:namedview
     id="namedview70798"
     pagecolor="#ffffff"
     bordercolor="#666666"
     borderopacity="1.0"
     inkscape:showpageshadow="2"
     inkscape:pageopacity="0.0"
     inkscape:pagecheckerboard="0"
     inkscape:deskcolor="#d1d1d1"
     inkscape:document-units="mm"
     showgrid="false"
     inkscape:zoom="3.4599915"
     inkscape:cx="152.45702"
     inkscape:cy="293.35332"
     inkscape:window-width="3836"
     inkscape:window-height="2121"
     inkscape:window-x="0"
     inkscape:window-y="18"
     inkscape:window-maximized="1"
     inkscape:current-layer="layer5" /><defs
     id="defs70793"><linearGradient
       inkscape:collect="always"
       id="linearGradient96557"><stop
         style="stop-color:#fff09e;stop-opacity:0.53280574;"
         offset="0"
         id="stop96553" /><stop
         style="stop-color:#8f8e6b;stop-opacity:0.29803922;"
         offset="0.38742948"
         id="stop96561" /><stop
         style="stop-color:#00112b;stop-opacity:0;"
         offset="1"
         id="stop96555" /></linearGradient><linearGradient
       inkscape:collect="always"
       id="linearGradient96378"><stop
         style="stop-color:#191927;stop-opacity:1;"
         offset="0"
         id="stop96374" /><stop
         style="stop-color:#191926;stop-opacity:1;"
         offset="0.08976577"
         id="stop96380" /><stop
         style="stop-color:#a6a6b4;stop-opacity:1;"
         offset="0.11261085"
         id="stop96382" /><stop
         style="stop-color:#161620;stop-opacity:1;"
         offset="0.13061444"
         id="stop96384" /><stop
         style="stop-color:#171723;stop-opacity:1;"
         offset="0.99813402"
         id="stop96376" /></linearGradient><inkscape:path-effect
       effect="fillet_chamfer"
       id="path-effect96336"
       is_visible="true"
       lpeversion="1"
       nodesatellites_param="F,0,0,1,0,2.6458333,0,1 @ F,0,0,1,0,2.6458333,0,1 @ F,0,0,1,0,2.6458333,0,1 @ F,0,0,1,0,2.6458333,0,1"
       unit="px"
       method="auto"
       mode="F"
       radius="10"
       chamfer_steps="1"
       flexible="false"
       use_knot_distance="true"
       apply_no_radius="true"
       apply_with_radius="true"
       only_selected="false"
       hide_knots="false" /><linearGradient
       inkscape:collect="always"
       id="linearGradient89356"><stop
         style="stop-color:#0d0d14;stop-opacity:1;"
         offset="0"
         id="stop89352" /><stop
         style="stop-color:#1c1c2b;stop-opacity:1;"
         offset="1"
         id="stop89354" /></linearGradient><linearGradient
       inkscape:collect="always"
       xlink:href="#linearGradient89356"
       id="linearGradient89358"
       x1="11.057069"
       y1="86.542951"
       x2="141.82461"
       y2="86.542951"
       gradientUnits="userSpaceOnUse" /><linearGradient
       inkscape:collect="always"
       xlink:href="#linearGradient96378"
       id="linearGradient96371"
       gradientUnits="userSpaceOnUse"
       x1="6.7269788"
       y1="91.929466"
       x2="141.82461"
       y2="86.542951"
       gradientTransform="translate(1.5008468e-6,1.4882328)" /><radialGradient
       inkscape:collect="always"
       xlink:href="#linearGradient96557"
       id="radialGradient96559"
       cx="69.93972"
       cy="88.405426"
       fx="69.93972"
       fy="88.405426"
       r="68.374466"
       gradientTransform="matrix(1.0630878,0,0,0.27367086,-14.174656,75.487698)"
       gradientUnits="userSpaceOnUse" /></defs><g
     inkscape:groupmode="layer"
     id="layer7"
     inkscape:label="Board 1"
     style="display:none"><rect
       style="display:inline;fill:#00112b;fill-opacity:1;stroke:#f3ce47;stroke-width:0.264999;stroke-linecap:round;stroke-linejoin:round;stroke-dasharray:none;stroke-opacity:1"
       id="rect96282"
       width="164.84071"
       height="145.0486"
       x="-4.9954557"
       y="-6.0050483"
       ry="7.3395591" /></g><g
     inkscape:groupmode="layer"
     id="layer5"
     inkscape:label="Board"
     style="display:inline"><ellipse
       style="display:inline;fill:url(#radialGradient96559);fill-opacity:1;stroke:none;stroke-width:0.273088;stroke-linecap:round;stroke-linejoin:round;stroke-dasharray:none;stroke-opacity:1"
       id="path96551"
       cx="60.177402"
       cy="99.681694"
       rx="72.398323"
       ry="18.712099"
       transform="matrix(0.99034372,-0.13863375,0.12177877,0.99255727,0,0)" /><path
       style="display:inline;fill:url(#linearGradient96371);fill-opacity:1;stroke:#f3f3f3;stroke-width:0.265;stroke-linecap:round;stroke-linejoin:round;stroke-dasharray:none;stroke-opacity:1"
       d="m 11.846926,78.735271 7.085979,24.545489 c 0.409177,1.40397 1.356685,2.50879 6.361827,1.6775 L 139.62252,86.079955 c 0.82335,-0.160528 0.82874,-0.715613 0.83712,-1.253407 0.005,-0.351502 0.01,-0.883138 0.01,-0.883138 L 93.804664,70.993236 C 92.12019,70.525769 90.380235,70.32998 88.635804,70.443801 l -74.601197,4.867605 c -2.495008,0.162795 -2.349788,1.577271 -2.187681,3.423865 z"
       id="path72402-1"
       sodipodi:nodetypes="ccccscsssc"
       inkscape:label="board" /><path
       style="display:inline;fill:url(#linearGradient89358);fill-opacity:1;stroke:#f3f3f3;stroke-width:0.265;stroke-linecap:round;stroke-linejoin:round;stroke-dasharray:none;stroke-opacity:1"
       d="m 11.846924,77.247038 7.085979,24.545492 c 0.409177,1.40397 1.356685,2.50879 6.361827,1.6775 L 139.62252,84.591721 c 0.82335,-0.160528 1.04758,-0.63789 0.67718,-0.889497 -0.2908,-0.197533 -1.04555,-0.418935 -1.04555,-0.418935 L 93.804667,69.505003 c -1.67295,-0.507164 -3.426997,-0.697366 -5.168862,-0.549435 l -73.944749,6.279897 c -2.271361,0.1929 -3.139711,0.908458 -2.844132,2.011573 z"
       id="path72402"
       sodipodi:nodetypes="ccccscsssc"
       inkscape:label="board" /><path
       style="display:none;fill:#959595;fill-opacity:1;stroke:#f3f3f3;stroke-width:0.265;stroke-linecap:round;stroke-linejoin:round;stroke-dasharray:none;stroke-opacity:1"
       d="m 19.673206,104.33268 0.03335,2.4542 122.118054,-20.618741 -0.0384,-2.117249 z"
       id="path91601" /><path
       style="display:none;fill:#161616;fill-opacity:1;stroke:#f3f3f3;stroke-width:0.265;stroke-linecap:round;stroke-linejoin:round;stroke-dasharray:none;stroke-opacity:1"
       d="m 11.229396,75.360071 -10e-7,1.182749 8.477161,30.24406 -0.03335,-2.4542 z"
       id="path92329" /><ellipse
       style="fill:#161616;fill-opacity:1;stroke:#f3ce47;stroke-width:0.264999;stroke-linecap:round;stroke-linejoin:round;stroke-dasharray:none;stroke-opacity:1"
       id="path93109"
       cx="25.630251"
       cy="99.561157"
       rx="0.7199468"
       ry="0.24979959" /><ellipse
       style="display:inline;fill:#161616;fill-opacity:1;stroke:#f3ce47;stroke-width:0.264999;stroke-linecap:round;stroke-linejoin:round;stroke-dasharray:none;stroke-opacity:1"
       id="path93109-1"
       cx="21.158396"
       cy="88.413422"
       rx="0.7199468"
       ry="0.24979959" /><ellipse
       style="display:inline;fill:#161616;fill-opacity:1;stroke:#f3ce47;stroke-width:0.264999;stroke-linecap:round;stroke-linejoin:round;stroke-dasharray:none;stroke-opacity:1"
       id="path93109-1-2"
       cx="18.188709"
       cy="80.491432"
       rx="0.7199468"
       ry="0.24979959" /><ellipse
       style="display:inline;fill:#161616;fill-opacity:1;stroke:#f3ce47;stroke-width:0.264999;stroke-linecap:round;stroke-linejoin:round;stroke-dasharray:none;stroke-opacity:1"
       id="path93109-1-9"
       cx="52.305923"
       cy="84.419228"
       rx="0.7199468"
       ry="0.24979959" /><ellipse
       style="display:inline;fill:#161616;fill-opacity:1;stroke:#f3ce47;stroke-width:0.264999;stroke-linecap:round;stroke-linejoin:round;stroke-dasharray:none;stroke-opacity:1"
       id="path93109-1-3"
       cx="63.855656"
       cy="93.382347"
       rx="0.7199468"
       ry="0.24979959" /><ellipse
       style="display:inline;fill:#161616;fill-opacity:1;stroke:#f3ce47;stroke-width:0.264999;stroke-linecap:round;stroke-linejoin:round;stroke-dasharray:none;stroke-opacity:1"
       id="path93109-1-6"
       cx="67.596764"
       cy="75.383133"
       rx="0.7199468"
       ry="0.24979959" /><ellipse
       style="display:inline;fill:#161616;fill-opacity:1;stroke:#f3ce47;stroke-width:0.264999;stroke-linecap:round;stroke-linejoin:round;stroke-dasharray:none;stroke-opacity:1"
       id="path93109-1-8"
       cx="44.537746"
       cy="77.696281"
       rx="0.7199468"
       ry="0.24979959" /><ellipse
       style="display:inline;fill:#161616;fill-opacity:1;stroke:#f3ce47;stroke-width:0.264999;stroke-linecap:round;stroke-linejoin:round;stroke-dasharray:none;stroke-opacity:1"
       id="path93109-1-21"
       cx="78.926537"
       cy="81.096176"
       rx="0.7199468"
       ry="0.24979959" /><ellipse
       style="display:inline;fill:#161616;fill-opacity:1;stroke:#f3ce47;stroke-width:0.264999;stroke-linecap:round;stroke-linejoin:round;stroke-dasharray:none;stroke-opacity:1"
       id="path93109-1-0"
       cx="93.735504"
       cy="88.573318"
       rx="0.7199468"
       ry="0.24979959" /></g><g
     inkscape:groupmode="layer"
     id="layer6"
     inkscape:label="Legs"><path
       style="fill:none;stroke:#afafaf;stroke-width:0.264583px;stroke-linecap:round;stroke-linejoin:round;stroke-opacity:1"
       d="m 25.634417,11.588651 v 87.93282"
       id="path76347" /><path
       style="fill:none;stroke:#afafaf;stroke-width:0.264583px;stroke-linecap:round;stroke-linejoin:round;stroke-opacity:1"
       d="m 21.158395,17.166791 v 71.22385"
       id="path76355" /><path
       style="fill:none;stroke:#afafaf;stroke-width:0.264583px;stroke-linecap:round;stroke-linejoin:round;stroke-opacity:1"
       d="m 18.188709,20.821281 v 59.64004"
       id="path76357" /><path
       style="fill:none;stroke:#afafaf;stroke-width:0.264583px;stroke-linecap:round;stroke-linejoin:round;stroke-opacity:1"
       d="m 44.537745,23.085791 v 54.60966"
       id="path76359" /><path
       style="fill:none;stroke:#afafaf;stroke-width:0.264583px;stroke-linecap:round;stroke-linejoin:round;stroke-opacity:1"
       d="m 52.323342,19.850871 v 64.55658"
       id="path76361" /><path
       style="fill:none;stroke:#afafaf;stroke-width:0.264583px;stroke-linecap:round;stroke-linejoin:round;stroke-opacity:1"
       d="m 63.845047,15.002621 v 78.36764"
       id="path76363" /><path
       style="fill:none;stroke:#afafaf;stroke-width:0.264583px;stroke-linecap:round;stroke-linejoin:round;stroke-opacity:1"
       d="m 67.56072,24.337651 v 51.01559"
       id="path76365" /><path
       style="fill:none;stroke:#afafaf;stroke-width:0.264583px;stroke-linecap:round;stroke-linejoin:round;stroke-opacity:1"
       d="m 78.908568,21.439731 v 59.65436"
       id="path76367" /><path
       style="fill:none;stroke:#afafaf;stroke-width:0.264583px;stroke-linecap:round;stroke-linejoin:round;stroke-opacity:1"
       d="m 93.722518,17.743521 v 70.82694"
       id="path76369" /><path
       style="fill:none;stroke:#000000;stroke-width:0.264583px;stroke-linecap:butt;stroke-linejoin:miter;stroke-opacity:1"
       d="m 384.89997,43.169211 3.1329,-0.33005"
       id="path76373" /><path
       style="fill:none;stroke:#afafaf;stroke-width:0.264583px;stroke-linecap:round;stroke-linejoin:round;stroke-opacity:1"
       d="m 22.951177,47.598151 v 1.75271"
       id="path76389" /><path
       style="fill:none;stroke:#afafaf;stroke-width:0.264583px;stroke-linecap:round;stroke-linejoin:round;stroke-opacity:1"
       d="m 22.940009,75.949911 v 0.80868"
       id="path76399" /><path
       style="fill:none;stroke:#afafaf;stroke-width:0.264583px;stroke-linecap:round;stroke-linejoin:round;stroke-opacity:1"
       d="m 23.008142,17.166791 v 1.70643"
       id="path76405" /><path
       style="fill:none;stroke:#afafaf;stroke-width:0.264583px;stroke-linecap:round;stroke-linejoin:round;stroke-opacity:1"
       d="m 19.530924,20.821281 v 1.57476 l 8.569396,-8.56939 -0.02024,-2.238"
       id="path76407" /><path
       style="fill:none;stroke:#afafaf;stroke-width:0.264583px;stroke-linecap:round;stroke-linejoin:round;stroke-opacity:1"
       d="m 19.485829,46.542111 v 1.36621 l 8.7275,3.69408 v -2.60386"
       id="path76409" /><path
       style="fill:none;stroke:#afafaf;stroke-width:0.264583px;stroke-linecap:round;stroke-linejoin:round;stroke-opacity:1"
       d="m 95.929798,17.652031 v 1.64204 l -27.135873,5.95453 v -0.94061"
       id="path76421" /><path
       style="fill:none;stroke:#afafaf;stroke-width:0.264583px;stroke-linecap:round;stroke-linejoin:round;stroke-opacity:1"
       d="m 80.613628,21.439731 v 1.21522"
       id="path76423" /><path
       style="fill:none;stroke:#afafaf;stroke-width:0.264583px;stroke-linecap:round;stroke-linejoin:round;stroke-opacity:1"
       d="m 96.062088,48.056041 v 1.89393 l -27.400455,-2.77283 v -1.19325"
       id="path76429" /><path
       style="fill:none;stroke:#afafaf;stroke-width:0.264583px;stroke-linecap:round;stroke-linejoin:round;stroke-opacity:1"
       d="m 80.481338,46.962021 v 1.41123"
       id="path77157" /><path
       style="fill:none;stroke:#afafaf;stroke-width:0.264583px;stroke-linecap:round;stroke-linejoin:round;stroke-opacity:1"
       d="m 19.530924,22.396041 49.263001,2.85256"
       id="path77159" /><path
       style="fill:none;stroke:#afafaf;stroke-width:0.264583px;stroke-linecap:round;stroke-linejoin:round;stroke-opacity:1"
       d="m 19.485829,47.908321 49.175804,-0.73118"
       id="path77161" /><path
       style="fill:none;stroke:#afafaf;stroke-width:0.264583px;stroke-linecap:round;stroke-linejoin:round;stroke-opacity:1"
       d="m 45.853193,67.730721 v 1.48838 l 20.597661,13.45455 -0.0427,-2.96284"
       id="path77165" /><path
       style="fill:none;stroke:#afafaf;stroke-width:0.264583px;stroke-linecap:round;stroke-linejoin:round;stroke-opacity:1"
       d="m 53.786229,72.617311 v 1.78371"
       id="path77167" /><path
       style="fill:none;stroke:#afafaf;stroke-width:0.264583px;stroke-linecap:round;stroke-linejoin:round;stroke-opacity:1"
       d="m 68.829276,66.437161 v 1.01361 l 27.038612,11.57362 v -2.70656"
       id="path77169" /><path
       style="fill:none;stroke:#afafaf;stroke-width:0.264583px;stroke-linecap:round;stroke-linejoin:round;stroke-opacity:1"
       d="m 80.548118,70.685751 v 1.78116"
       id="path77171" /><path
       style="fill:none;stroke:#afafaf;stroke-width:0.264583px;stroke-linecap:round;stroke-linejoin:round;stroke-opacity:1"
       d="m 45.720901,46.144261 v 1.37398 l 20.285157,3.16373 v -2.27179"
       id="path77173" /><path
       style="fill:none;stroke:#afafaf;stroke-width:0.264583px;stroke-linecap:round;stroke-linejoin:round;stroke-opacity:1"
       d="m 53.845586,47.044861 v 1.74053"
       id="path77175" /><path
       style="fill:none;stroke:#afafaf;stroke-width:0.264583px;stroke-linecap:round;stroke-linejoin:round;stroke-opacity:1"
       d="m 45.932859,23.085791 v 0.83905 l 20.162231,-6.948 v -2.025"
       id="path77177" /><path
       style="fill:none;stroke:#afafaf;stroke-width:0.264583px;stroke-linecap:round;stroke-linejoin:round;stroke-opacity:1"
       d="m 53.911488,19.850871 v 1.3245"
       id="path77179" /><path
       style="fill:none;stroke:#a8a8a8;stroke-width:0.265;stroke-linecap:round;stroke-linejoin:round;stroke-dasharray:none;stroke-opacity:1"
       d="m 19.623281,70.577591 v 0.77171 l 8.470722,13.74721 v -1.15733"
       id="path77907" /></g><g
     inkscape:groupmode="layer"
     id="layer4"
     inkscape:label="LEDs"
     transform="translate(35.191319,1.1719321)"
     style="display:inline;fill:#ff8080;fill-opacity:0.527084"
     sodipodi:insensitive="true"><path
       style="display:inline;fill:#ff3333;fill-opacity:1;stroke:#000000;stroke-width:0.213418px;stroke-linecap:butt;stroke-linejoin:miter;stroke-opacity:1"
       d="m 31.899217,20.996421 v 2.13964 h 2.267093 v -2.13964 c 0,0 0.03127,-1.3199 -1.124215,-1.33353 -1.155487,-0.0136 -1.142878,1.33353 -1.142878,1.33353 z"
       id="path72524-386-6"
       sodipodi:nodetypes="cccczc"
       inkscape:label="LED27" /><path
       style="display:inline;fill:#ff3333;fill-opacity:1;stroke:#000000;stroke-width:0.213418px;stroke-linecap:butt;stroke-linejoin:miter;stroke-opacity:1"
       d="m 8.9119861,19.743071 v 2.13964 h 2.2670929 v -2.13964 c 0,0 0.03127,-1.3199 -1.124215,-1.33353 -1.1554869,-0.0136 -1.1428779,1.33353 -1.1428779,1.33353 z"
       id="path72524-386-4"
       sodipodi:nodetypes="cccczc"
       inkscape:label="LED26" /><path
       style="display:inline;fill:#ff3333;fill-opacity:1;stroke:#000000;stroke-width:0.213418px;stroke-linecap:butt;stroke-linejoin:miter;stroke-opacity:1"
       d="m -17.44795,17.494131 v 2.13964 h 2.267093 v -2.13964 c 0,0 0.03127,-1.3199 -1.124215,-1.33353 -1.155487,-0.0136 -1.142878,1.33353 -1.142878,1.33353 z"
       id="path72524-386"
       sodipodi:nodetypes="cccczc"
       inkscape:label="LED25" /><path
       style="display:inline;fill:#ff3333;fill-opacity:1;stroke:#000000;stroke-width:0.264583px;stroke-linecap:butt;stroke-linejoin:miter;stroke-opacity:1"
       d="m 43.207237,17.590551 v 2.6526 h 2.810604 v -2.6526 c 0,0 0.03877,-1.63633 -1.393734,-1.65323 -1.432502,-0.0169 -1.41687,1.65323 -1.41687,1.65323 z"
       id="path72524-76"
       sodipodi:nodetypes="cccczc"
       inkscape:label="LED24" /><path
       style="display:inline;fill:#ff3333;fill-opacity:1;stroke:#000000;stroke-width:0.264583px;stroke-linecap:butt;stroke-linejoin:miter;stroke-opacity:1"
       d="m 16.599305,15.980471 v 2.6526 h 2.810604 v -2.6526 c 0,0 0.03877,-1.63633 -1.393734,-1.65323 -1.432502,-0.0169 -1.41687,1.65323 -1.41687,1.65323 z"
       id="path72524-48"
       sodipodi:nodetypes="cccczc"
       inkscape:label="LED23" /><path
       style="display:inline;fill:#ff3333;fill-opacity:1;stroke:#000000;stroke-width:0.264583px;stroke-linecap:butt;stroke-linejoin:miter;stroke-opacity:1"
       d="m -14.485113,13.294481 v 2.6526 h 2.810604 v -2.6526 c 0,0 0.03877,-1.63633 -1.393733,-1.65323 -1.432502,-0.0169 -1.41687,1.65323 -1.416871,1.65323 z"
       id="path72524-33"
       sodipodi:nodetypes="cccczc"
       inkscape:label="LED22" /><path
       style="display:inline;fill:#ff3333;fill-opacity:1;stroke:#000000;stroke-width:0.265;stroke-linecap:butt;stroke-linejoin:miter;stroke-dasharray:none;stroke-opacity:1"
       d="m 57.762279,13.057951 v 3.44422 h 3.64938 v -3.44422 c 0,0 0.05034,-2.12467 -1.80967,-2.14661 -1.860007,-0.022 -1.83971,2.14661 -1.83971,2.14661 z"
       id="path72524-64-3"
       sodipodi:nodetypes="cccczc"
       inkscape:label="LED21" /><path
       style="display:inline;fill:#ff3333;fill-opacity:1;stroke:#000000;stroke-width:0.265;stroke-linecap:butt;stroke-linejoin:miter;stroke-dasharray:none;stroke-opacity:1"
       d="m 28.066354,10.335691 v 3.44422 h 3.64938 v -3.44422 c 0,0 0.05034,-2.1246699 -1.80967,-2.1466099 -1.860007,-0.022 -1.83971,2.1466099 -1.83971,2.1466099 z"
       id="path72524-64-0"
       sodipodi:nodetypes="cccczc"
       inkscape:label="LED20" /><path
       style="display:inline;fill:#ff3333;fill-opacity:1;stroke:#000000;stroke-width:0.265;stroke-linecap:butt;stroke-linejoin:miter;stroke-dasharray:none;stroke-opacity:1"
       d="m -10.052333,6.9725011 v 3.4442199 h 3.6493801 V 6.9725011 c 0,0 0.05034,-2.12467 -1.80967,-2.14661 -1.8600071,-0.022 -1.8397101,2.14661 -1.8397101,2.14661 z"
       id="path72524-64"
       sodipodi:nodetypes="cccczc"
       inkscape:label="LED19" /><path
       style="display:inline;fill:#ff3333;fill-opacity:1;stroke:#000000;stroke-width:0.213418px;stroke-linecap:butt;stroke-linejoin:miter;stroke-opacity:1"
       d="m 31.899217,42.672321 v 2.13964 h 2.267093 v -2.13964 c 0,0 0.03127,-1.3199 -1.124215,-1.33353 -1.155487,-0.0136 -1.142878,1.33353 -1.142878,1.33353 z"
       id="path72524-386-9"
       sodipodi:nodetypes="cccczc"
       inkscape:label="LED18" /><path
       style="display:inline;fill:#ff3333;fill-opacity:1;stroke:#000000;stroke-width:0.213418px;stroke-linecap:butt;stroke-linejoin:miter;stroke-opacity:1"
       d="m 8.9119861,42.825391 v 2.13964 h 2.2670929 v -2.13964 c 0,0 0.03127,-1.3199 -1.124215,-1.33353 -1.1554869,-0.0136 -1.1428779,1.33353 -1.1428779,1.33353 z"
       id="path72524-386-2"
       sodipodi:nodetypes="cccczc"
       inkscape:label="LED17" /><path
       style="display:inline;fill:#ff3333;fill-opacity:1;stroke:#000000;stroke-width:0.213418px;stroke-linecap:butt;stroke-linejoin:miter;stroke-opacity:1"
       d="m -17.447949,43.171751 v 2.13964 h 2.267093 v -2.13964 c 0,0 0.03127,-1.3199 -1.124215,-1.33353 -1.155487,-0.0136 -1.142878,1.33353 -1.142878,1.33353 z"
       id="path72524-386-24"
       sodipodi:nodetypes="cccczc"
       inkscape:label="LED16" /><path
       style="display:inline;fill:#ff3333;fill-opacity:1;stroke:#000000;stroke-width:0.264583px;stroke-linecap:butt;stroke-linejoin:miter;stroke-opacity:1"
       d="m 43.207237,43.005201 v 2.6526 h 2.810604 v -2.6526 c 0,0 0.03877,-1.63633 -1.393734,-1.65323 -1.432502,-0.0169 -1.41687,1.65323 -1.41687,1.65323 z"
       id="path72524-75"
       sodipodi:nodetypes="cccczc"
       inkscape:label="LED15" /><path
       style="display:inline;fill:#ff3333;fill-opacity:1;stroke:#000000;stroke-width:0.264583px;stroke-linecap:butt;stroke-linejoin:miter;stroke-opacity:1"
       d="m 16.56626,43.220321 v 2.6526 h 2.810604 v -2.6526 c 0,0 0.03877,-1.63633 -1.393734,-1.65323 -1.432502,-0.0169 -1.41687,1.65323 -1.41687,1.65323 z"
       id="path72524-59"
       sodipodi:nodetypes="cccczc"
       inkscape:label="LED14" /><path
       style="display:inline;fill:#ff3333;fill-opacity:1;stroke:#000000;stroke-width:0.264583px;stroke-linecap:butt;stroke-linejoin:miter;stroke-opacity:1"
       d="m -14.485113,43.641331 v 2.6526 h 2.810604 v -2.6526 c 0,0 0.03877,-1.63633 -1.393734,-1.65323 -1.432502,-0.0169 -1.41687,1.65323 -1.41687,1.65323 z"
       id="path72524-18"
       sodipodi:nodetypes="cccczc"
       inkscape:label="LED13" /><path
       style="display:inline;fill:#ff3333;fill-opacity:1;stroke:#000000;stroke-width:0.265;stroke-linecap:butt;stroke-linejoin:miter;stroke-dasharray:none;stroke-opacity:1"
       d="m 57.762279,43.307391 v 3.44422 h 3.64938 v -3.44422 c 0,0 0.05034,-2.12467 -1.80967,-2.14661 -1.860007,-0.022 -1.83971,2.14661 -1.83971,2.14661 z"
       id="path72524-64-09"
       sodipodi:nodetypes="cccczc"
       inkscape:label="LED12" /><path
       style="display:inline;fill:#ff3333;fill-opacity:1;stroke:#000000;stroke-width:0.265;stroke-linecap:butt;stroke-linejoin:miter;stroke-dasharray:none;stroke-opacity:1"
       d="m 28.066354,43.794031 v 3.44422 h 3.64938 v -3.44422 c 0,0 0.05034,-2.12467 -1.80967,-2.14661 -1.860007,-0.022 -1.83971,2.14661 -1.83971,2.14661 z"
       id="path72524-64-2"
       sodipodi:nodetypes="cccczc"
       inkscape:label="LED11" /><path
       style="display:inline;fill:#ff3333;fill-opacity:1;stroke:#000000;stroke-width:0.265;stroke-linecap:butt;stroke-linejoin:miter;stroke-dasharray:none;stroke-opacity:1"
       d="m -10.052333,44.323601 v 3.44422 h 3.6493801 v -3.44422 c 0,0 0.05034,-2.12467 -1.80967,-2.14661 -1.8600071,-0.022 -1.8397101,2.14661 -1.8397101,2.14661 z"
       id="path72524-64-5"
       sodipodi:nodetypes="cccczc"
       inkscape:label="LED10" /><path
       style="display:inline;fill:#ff3333;fill-opacity:1;stroke:#000000;stroke-width:0.213418px;stroke-linecap:butt;stroke-linejoin:miter;stroke-opacity:1"
       d="m 31.899217,63.018881 v 2.13964 h 2.267093 v -2.13964 c 0,0 0.03127,-1.3199 -1.124215,-1.33353 -1.155487,-0.0136 -1.142878,1.33353 -1.142878,1.33353 z"
       id="path72524-386-48"
       sodipodi:nodetypes="cccczc"
       inkscape:label="LED09" /><path
       style="display:inline;fill:#ff3333;fill-opacity:1;stroke:#000000;stroke-width:0.213418px;stroke-linecap:butt;stroke-linejoin:miter;stroke-opacity:1"
       d="m 8.9119861,64.419151 v 2.13964 h 2.2670929 v -2.13964 c 0,0 0.03127,-1.3199 -1.124215,-1.33353 -1.1554869,-0.0136 -1.1428779,1.33353 -1.1428779,1.33353 z"
       id="path72524-386-75"
       sodipodi:nodetypes="cccczc"
       inkscape:label="LED08" /><path
       style="display:inline;fill:#ff3333;fill-opacity:1;stroke:#000000;stroke-width:0.213418px;stroke-linecap:butt;stroke-linejoin:miter;stroke-opacity:1"
       d="m -17.44795,67.159311 v 2.13964 h 2.267093 v -2.13964 c 0,0 0.03127,-1.3199 -1.124215,-1.33353 -1.155487,-0.0136 -1.142878,1.33353 -1.142878,1.33353 z"
       id="path72524-386-7"
       sodipodi:nodetypes="cccczc"
       inkscape:label="LED07" /><path
       style="display:inline;fill:#ff3333;fill-opacity:1;stroke:#000000;stroke-width:0.264583px;stroke-linecap:butt;stroke-linejoin:miter;stroke-opacity:1"
       d="m 43.207237,66.861221 v 2.6526 h 2.810604 v -2.6526 c 0,0 0.03877,-1.63633 -1.393734,-1.65323 -1.432502,-0.0169 -1.41687,1.65323 -1.41687,1.65323 z"
       id="path72524-9"
       sodipodi:nodetypes="cccczc"
       inkscape:label="LED06" /><path
       style="display:inline;fill:#ff3333;fill-opacity:1;stroke:#000000;stroke-width:0.264583px;stroke-linecap:butt;stroke-linejoin:miter;stroke-opacity:1"
       d="m 16.388611,68.660491 v 2.6526 h 2.810604 v -2.6526 c 0,0 0.03877,-1.63633 -1.393734,-1.65323 -1.432502,-0.0169 -1.41687,1.65323 -1.41687,1.65323 z"
       id="path72524-5"
       sodipodi:nodetypes="cccczc"
       inkscape:label="LED05" /><path
       style="display:inline;fill:#ff3333;fill-opacity:1;stroke:#000000;stroke-width:0.264583px;stroke-linecap:butt;stroke-linejoin:miter;stroke-opacity:1"
       d="m -14.617463,72.125381 v 2.6526 h 2.810604 v -2.6526 c 0,0 0.03877,-1.63633 -1.393734,-1.65323 -1.432502,-0.0169 -1.41687,1.65323 -1.41687,1.65323 z"
       id="path72524-7"
       sodipodi:nodetypes="cccczc"
       inkscape:label="LED04" /><path
       style="display:inline;fill:#ff3333;fill-opacity:1;stroke:#000000;stroke-width:0.265;stroke-linecap:butt;stroke-linejoin:miter;stroke-dasharray:none;stroke-opacity:1"
       d="m 57.762279,71.701681 v 3.44422 h 3.64938 v -3.44422 c 0,0 0.05034,-2.12467 -1.80967,-2.14661 -1.860007,-0.022 -1.83971,2.14661 -1.83971,2.14661 z"
       id="path72524-64-9"
       sodipodi:nodetypes="cccczc"
       inkscape:label="LED03" /><path
       style="display:inline;fill:#ff3333;fill-opacity:1;stroke:#000000;stroke-width:0.265;stroke-linecap:butt;stroke-linejoin:miter;stroke-dasharray:none;stroke-opacity:1"
       d="m 28.066354,75.094661 v 3.44422 h 3.649381 v -3.44422 c 0,0 0.05034,-2.12467 -1.809671,-2.14661 -1.860006,-0.022 -1.83971,2.14661 -1.83971,2.14661 z"
       id="path72524-64-05"
       sodipodi:nodetypes="cccczc"
       inkscape:label="LED02" /><path
       style="display:inline;fill:#ff3333;fill-opacity:1;stroke:#000000;stroke-width:0.265;stroke-linecap:butt;stroke-linejoin:miter;stroke-dasharray:none;stroke-opacity:1"
       d="m -10.052333,79.216321 v 3.44422 h 3.6493801 v -3.44422 c 0,0 0.05034,-2.12467 -1.80967,-2.14661 -1.8600071,-0.022 -1.8397101,2.14661 -1.8397101,2.14661 z"
       id="path72524-64-4"
       sodipodi:nodetypes="cccczc"
       inkscape:label="LED01" /></g></svg>
