<?xml version="1.0" encoding="UTF-8" standalone="no"?>
<svg
   width="351px"
   height="68px"
   viewBox="0 0 351 68"
   version="1.1"
   id="svg1"
   sodipodi:docname="LiveWires-white.svg"
   inkscape:version="1.4.2 (ebf0e940d0, 2025-05-08)"
   xmlns:inkscape="http://www.inkscape.org/namespaces/inkscape"
   xmlns:sodipodi="http://sodipodi.sourceforge.net/DTD/sodipodi-0.dtd"
   xmlns="http://www.w3.org/2000/svg"
   xmlns:svg="http://www.w3.org/2000/svg"
   xmlns:rdf="http://www.w3.org/1999/02/22-rdf-syntax-ns#"
   xmlns:cc="http://creativecommons.org/ns#"
   xmlns:dc="http://purl.org/dc/elements/1.1/">
  <defs
     id="defs1" />
  <sodipodi:namedview
     id="namedview1"
     pagecolor="#ffffff"
     bordercolor="#000000"
     borderopacity="0.25"
     inkscape:showpageshadow="2"
     inkscape:pageopacity="0.0"
     inkscape:pagecheckerboard="0"
     inkscape:deskcolor="#d1d1d1"
     inkscape:zoom="2.3529935"
     inkscape:cx="202.08301"
     inkscape:cy="17.637108"
     inkscape:window-width="1920"
     inkscape:window-height="1200"
     inkscape:window-x="3840"
     inkscape:window-y="0"
     inkscape:window-maximized="1"
     inkscape:current-layer="Logo/Live-Wires" />
  <!-- Generator: Sketch 58 (84663) - https://sketch.com -->
  <title
     id="title1">Logo/Live Wires</title>
  <desc
     id="desc1">Created with Sketch.</desc>
  <g
     id="Logo/Live-Wires"
     stroke="none"
     stroke-width="1"
     fill="none"
     fill-rule="evenodd">
    <polygon
       id="Path"
       fill="#2BA8D8"
       transform="translate(20.500000, 33.000000) rotate(90.000000) translate(-20.500000, -33.000000) "
       points="16.136971 19 46 42.2132011 25.2897404 34.816879 25.2897404 47 -5 26.0557325 16.136971 32.2643312" />
    <path
       d="M46,7 L49.6233251,7 L49.6233251,58.7433752 L46,58.7433752 L46,7 Z M63.3771712,22.0794979 L63.3771712,58.7433752 L59.7538462,58.7433752 L59.7538462,22.0794979 L63.3771712,22.0794979 Z M58.7186104,10.3263598 C58.7186104,6.48256625 64.5602978,6.48256625 64.5602978,10.3263598 C64.5602978,14.1701534 58.7186104,14.1701534 58.7186104,10.3263598 Z M85.560794,58.7433752 L70.2540943,22.2273361 L74.2471464,22.2273361 L87.5573201,54.5299861 L100.867494,22.2273361 L104.860546,22.2273361 L89.5538462,58.7433752 L85.560794,58.7433752 Z M127.33995,59.2608089 C117.061538,59.2608089 108.779653,52.0906555 108.779653,40.4853556 C108.779653,29.5453278 117.061538,21.6359833 127.33995,21.6359833 C137.618362,21.6359833 146.787593,27.9191074 145.38263,42.1854951 L112.476923,42.1854951 C113.216377,50.7601116 119.797519,55.7126918 127.33995,55.7126918 C132.146402,55.7126918 137.766253,53.790795 140.502233,50.1687587 L143.090323,52.2384937 C139.540943,56.8953975 133.181638,59.2608089 127.33995,59.2608089 Z M112.476923,39.0069735 L142.129032,39.0069735 C142.055087,29.9888424 136.139454,24.9623431 127.33995,24.9623431 C119.797519,24.9623431 113.290323,30.0627615 112.476923,39.0069735 Z M179.249628,22.2273361 L187.161787,22.2273361 L195.147891,49.651325 L203.503722,22.2273361 L213.486352,22.2273361 L200.767742,58.8912134 L190.267494,58.8912134 L186.496278,48.0990237 L183.24268,35.902371 L179.989082,48.0990237 L176.217866,58.8912134 L165.717618,58.8912134 L152.925062,22.2273361 L162.981638,22.2273361 L171.337469,49.651325 L179.249628,22.2273361 Z M230.124069,22.153417 L230.124069,58.7433752 L221.10273,58.7433752 L221.10273,22.153417 L230.124069,22.153417 Z M238.258065,22.3012552 L246.613896,22.3012552 L247.279404,26.5146444 C250.08933,22.0055788 253.860546,21.3403068 257.557816,21.3403068 C261.329032,21.3403068 264.952357,22.818689 266.948883,24.8145049 L262.881886,32.6499303 C261.033251,31.097629 259.332506,30.2845188 256.37469,30.2845188 C251.642184,30.2845188 247.279404,32.7977685 247.279404,39.5244073 L247.279404,58.7433752 L238.258065,58.7433752 L238.258065,22.3012552 Z M306.509677,43.7377964 L278.040695,43.7377964 C278.632258,48.2468619 282.551365,51.4993026 288.91067,51.4993026 C292.238213,51.4993026 296.600993,50.2426778 298.671464,48.0990237 L304.439206,53.790795 C300.594045,57.7824268 294.308685,59.7043236 288.762779,59.7043236 C276.19206,59.7043236 268.723573,51.9428173 268.723573,40.2635983 C268.723573,29.1757322 276.266005,21.1924686 288.09727,21.1924686 C300.298263,21.1924686 307.91464,28.7322176 306.509677,43.7377964 Z M278.188586,36.2719665 L297.858065,36.2719665 C297.266501,31.5411437 293.569231,29.1757322 288.393052,29.1757322 C283.512655,29.1757322 279.519603,31.5411437 278.188586,36.2719665 Z M342.299256,26.0711297 L337.270968,31.9846583 C334.682878,29.5453278 331.725062,28.7322176 328.249628,28.7322176 C323.960794,28.7322176 321.594541,30.0627615 321.594541,32.3542538 C321.594541,34.7196653 323.738958,36.0502092 328.397519,36.3458856 C335.274442,36.7894003 344,38.3417015 344,48.0251046 C344,54.4560669 338.749876,60 328.323573,60 C322.555831,60 316.788089,59.0390516 311.46402,53.4951185 L315.900744,47.0641562 C318.488834,49.9470014 324.404467,52.0906555 328.471464,52.1645746 C331.872953,52.2384937 335.052605,50.4644351 335.052605,47.8033473 C335.052605,45.2900976 332.982134,44.2552301 327.805955,43.9595537 C320.929032,43.4421199 312.721092,40.9288703 312.721092,32.6499303 C312.721092,24.223152 321.44665,21.2663877 328.101737,21.2663877 C333.795533,21.2663877 338.084367,22.3751743 342.299256,26.0711297 Z"
       id="livewires"
       fill="#0B2C35"
       style="fill:#ececec" />
    <g
       id="Group-3"
       transform="translate(217.000000, 4.000000)">
      <path
         d="M2.42128092,6.45909091 C2.53658001,6.45909091 2.61344607,6.53333334 2.61344607,6.64469697 C2.61344607,9.65151516 5.18845911,12.1015152 8.30153458,12.1015152 C11.41461,12.1015152 13.9511901,9.65151516 13.9511901,6.64469697 C13.9511901,6.53333334 14.0280562,6.45909091 14.1433552,6.45909091 L14.1433552,6.45909091 L16.372471,6.45909091 C16.4877701,6.45909091 16.5646362,6.53333334 16.6030692,6.64469697 C16.6030692,11.0621212 12.8750652,14.6628788 8.30153458,14.6628788 C3.72800395,14.6628788 -1.24344979e-14,11.0621212 -1.24344979e-14,6.64469697 C-1.24344979e-14,6.53333334 0.0768660609,6.45909091 0.192165153,6.45909091 L0.192165153,6.45909091 Z M9.91572185,0.222727273 C9.99258792,0.185606061 10.069454,0.185606061 10.14632,0.259848484 C10.1847531,0.296969697 10.2231861,0.408333334 10.14632,0.482575757 C9.26236033,1.5219697 9.99258792,2.45 10.8765476,3.63787879 L10.8765476,3.63787879 L10.9149807,3.675 C11.5683421,4.56590909 12.3754358,5.64242425 12.4138689,6.79318182 L12.4138689,6.79318182 L12.4138689,6.86742425 C12.4138689,8.12954545 11.7605073,9.31742425 10.6459494,10.0598485 L10.6459494,10.0598485 L10.6075164,10.0969697 C10.5690834,10.0969697 10.5690834,10.1340909 10.5306503,10.1340909 L10.5306503,10.1340909 L10.4922173,10.1712121 C9.83885579,10.5424242 9.07019519,10.7651515 8.30153458,10.7651515 C8.18623548,10.7651515 8.03250337,10.7280303 7.87877124,10.7280303 C5.76495457,10.5424242 4.18920031,8.83484848 4.18920031,6.83030303 L4.18920031,6.83030303 L4.18920031,6.75606061 C4.22763335,5.41969697 4.68882972,4.56590909 5.11159305,4.08333334 C5.53435638,3.56363636 5.99555275,3.3780303 6.03398578,3.34090909 C6.11085184,3.34090909 6.18771791,3.34090909 6.22615093,3.3780303 C6.303017,3.41515152 6.303017,3.48939394 6.303017,3.56363636 C6.14928487,4.45454545 6.49518214,4.97424243 6.80264639,5.23409091 C6.64891427,3.675 7.45600791,2.45 8.14780246,1.67045455 C8.99332912,0.742424243 9.91572185,0.222727273 9.91572185,0.222727273 Z"
         id="SU-Logo"
         fill="#2CA8D7"
         fill-rule="nonzero" />
    </g>
  </g>
  <metadata
     id="metadata1">
    <rdf:RDF>
      <cc:Work
         rdf:about="">
        <dc:title>Logo/Live Wires</dc:title>
      </cc:Work>
    </rdf:RDF>
  </metadata>
</svg>
