%TF.GenerationSoftware,KiCad,Pcbnew,8.0.1*%
%TF.CreationDate,2024-05-04T11:36:43+01:00*%
%TF.ProjectId,macropad-rev1,6d616372-6f70-4616-942d-726576312e6b,r1*%
%TF.SameCoordinates,Original*%
%TF.FileFunction,Copper,L1,Top*%
%TF.FilePolarity,Positive*%
%FSLAX46Y46*%
G04 Gerber Fmt 4.6, Leading zero omitted, Abs format (unit mm)*
G04 Created by KiCad (PCBNEW 8.0.1) date 2024-05-04 11:36:43*
%MOMM*%
%LPD*%
G01*
G04 APERTURE LIST*
G04 Aperture macros list*
%AMRoundRect*
0 Rectangle with rounded corners*
0 $1 Rounding radius*
0 $2 $3 $4 $5 $6 $7 $8 $9 X,Y pos of 4 corners*
0 Add a 4 corners polygon primitive as box body*
4,1,4,$2,$3,$4,$5,$6,$7,$8,$9,$2,$3,0*
0 Add four circle primitives for the rounded corners*
1,1,$1+$1,$2,$3*
1,1,$1+$1,$4,$5*
1,1,$1+$1,$6,$7*
1,1,$1+$1,$8,$9*
0 Add four rect primitives between the rounded corners*
20,1,$1+$1,$2,$3,$4,$5,0*
20,1,$1+$1,$4,$5,$6,$7,0*
20,1,$1+$1,$6,$7,$8,$9,0*
20,1,$1+$1,$8,$9,$2,$3,0*%
G04 Aperture macros list end*
%TA.AperFunction,ComponentPad*%
%ADD10C,3.500000*%
%TD*%
%TA.AperFunction,ComponentPad*%
%ADD11C,2.000000*%
%TD*%
%TA.AperFunction,ComponentPad*%
%ADD12R,2.000000X2.000000*%
%TD*%
%TA.AperFunction,ComponentPad*%
%ADD13C,2.200000*%
%TD*%
%TA.AperFunction,ComponentPad*%
%ADD14RoundRect,0.277778X0.722222X0.722222X-0.722222X0.722222X-0.722222X-0.722222X0.722222X-0.722222X0*%
%TD*%
%TA.AperFunction,ComponentPad*%
%ADD15RoundRect,0.312500X-0.687500X-0.687500X0.687500X-0.687500X0.687500X0.687500X-0.687500X0.687500X0*%
%TD*%
%TA.AperFunction,ComponentPad*%
%ADD16C,5.000000*%
%TD*%
%TA.AperFunction,ComponentPad*%
%ADD17O,2.000000X2.000000*%
%TD*%
%TA.AperFunction,Profile*%
%ADD18C,0.050000*%
%TD*%
G04 APERTURE END LIST*
D10*
%TO.P,SW5,1,1*%
%TO.N,GND*%
X121190000Y-116460000D03*
%TO.P,SW5,2,2*%
%TO.N,Net-(U1-GPIO17)*%
X127540000Y-113920000D03*
%TD*%
D11*
%TO.P,C2,1*%
%TO.N,GND*%
X150000000Y-76500000D03*
%TO.P,C2,2*%
%TO.N,Net-(U1-GPIO4)*%
X150000000Y-74000000D03*
%TD*%
D12*
%TO.P,Q1,1,S*%
%TO.N,GND*%
X113500000Y-124250000D03*
D11*
%TO.P,Q1,2,G*%
%TO.N,Net-(Q1-G)*%
X110960000Y-124250000D03*
%TO.P,Q1,3,D*%
%TO.N,Net-(D1-K)*%
X108420000Y-124250000D03*
%TD*%
D10*
%TO.P,SW8,1,1*%
%TO.N,GND*%
X178190000Y-116460000D03*
%TO.P,SW8,2,2*%
%TO.N,Net-(U1-GPIO14)*%
X184540000Y-113920000D03*
%TD*%
D12*
%TO.P,D1,1,K*%
%TO.N,Net-(D1-K)*%
X104000000Y-124250000D03*
D11*
%TO.P,D1,2,A*%
%TO.N,Net-(D1-A)*%
X101460000Y-124250000D03*
%TD*%
D12*
%TO.P,D3,1,K*%
%TO.N,Net-(D3-K)*%
X104000000Y-108250000D03*
D11*
%TO.P,D3,2,A*%
%TO.N,Net-(D3-A)*%
X101460000Y-108250000D03*
%TD*%
D10*
%TO.P,SW2,1,1*%
%TO.N,GND*%
X140190000Y-97460000D03*
%TO.P,SW2,2,2*%
%TO.N,Net-(U1-GPIO7)*%
X146540000Y-94920000D03*
%TD*%
D12*
%TO.P,Q3,1,S*%
%TO.N,GND*%
X113500000Y-108250000D03*
D11*
%TO.P,Q3,2,G*%
%TO.N,Net-(Q3-G)*%
X110960000Y-108250000D03*
%TO.P,Q3,3,D*%
%TO.N,Net-(D3-K)*%
X108420000Y-108250000D03*
%TD*%
D13*
%TO.P,R2,2*%
%TO.N,VCC*%
X89800000Y-113000000D03*
%TO.P,R2,1*%
%TO.N,Net-(D2-A)*%
X97420000Y-113000000D03*
%TD*%
D10*
%TO.P,SW7,1,1*%
%TO.N,GND*%
X159190000Y-116460000D03*
%TO.P,SW7,2,2*%
%TO.N,Net-(U1-GPIO15)*%
X165540000Y-113920000D03*
%TD*%
D12*
%TO.P,Q2,1,S*%
%TO.N,GND*%
X113500000Y-116250000D03*
D11*
%TO.P,Q2,2,G*%
%TO.N,Net-(Q2-G)*%
X110960000Y-116250000D03*
%TO.P,Q2,3,D*%
%TO.N,Net-(D2-K)*%
X108420000Y-116250000D03*
%TD*%
D13*
%TO.P,R3,2*%
%TO.N,VCC*%
X89800000Y-107000000D03*
%TO.P,R3,1*%
%TO.N,Net-(D3-A)*%
X97420000Y-107000000D03*
%TD*%
%TO.P,R6,1*%
%TO.N,Net-(R6-Pad1)*%
X127000000Y-74400000D03*
%TO.P,R6,2*%
%TO.N,Net-(U1-GPIO4)*%
X119380000Y-74400000D03*
%TD*%
D12*
%TO.P,Q4,1,S*%
%TO.N,GND*%
X113500000Y-100250000D03*
D11*
%TO.P,Q4,2,G*%
%TO.N,Net-(Q4-G)*%
X110960000Y-100250000D03*
%TO.P,Q4,3,D*%
%TO.N,Net-(D4-K)*%
X108420000Y-100250000D03*
%TD*%
D13*
%TO.P,R8,1*%
%TO.N,VCC*%
X119380000Y-78250000D03*
%TO.P,R8,2*%
%TO.N,Net-(R6-Pad1)*%
X127000000Y-78250000D03*
%TD*%
D12*
%TO.P,D2,1,K*%
%TO.N,Net-(D2-K)*%
X104000000Y-116250000D03*
D11*
%TO.P,D2,2,A*%
%TO.N,Net-(D2-A)*%
X101460000Y-116250000D03*
%TD*%
D13*
%TO.P,R1,2*%
%TO.N,VCC*%
X89800000Y-119000000D03*
%TO.P,R1,1*%
%TO.N,Net-(D1-A)*%
X97420000Y-119000000D03*
%TD*%
D12*
%TO.P,D4,1,K*%
%TO.N,Net-(D4-K)*%
X104000000Y-100250000D03*
D11*
%TO.P,D4,2,A*%
%TO.N,Net-(D4-A)*%
X101460000Y-100250000D03*
%TD*%
D10*
%TO.P,SW9,1,1*%
%TO.N,GND*%
X99310000Y-84260000D03*
%TO.P,SW9,2,2*%
%TO.N,Net-(U1-GPIO5)*%
X105660000Y-81720000D03*
%TD*%
D13*
%TO.P,R7,1*%
%TO.N,Net-(R5-Pad1)*%
X127000000Y-82300000D03*
%TO.P,R7,2*%
%TO.N,VCC*%
X119380000Y-82300000D03*
%TD*%
D10*
%TO.P,SW1,1,1*%
%TO.N,GND*%
X121190000Y-97460000D03*
%TO.P,SW1,2,2*%
%TO.N,Net-(U1-GPIO6)*%
X127540000Y-94920000D03*
%TD*%
%TO.P,SW3,1,1*%
%TO.N,GND*%
X159190000Y-97460000D03*
%TO.P,SW3,2,2*%
%TO.N,Net-(U1-GPIO8)*%
X165540000Y-94920000D03*
%TD*%
D14*
%TO.P,U2,1,GND*%
%TO.N,GND*%
X155000000Y-83080000D03*
D11*
%TO.P,U2,2,VCC*%
%TO.N,VCC*%
X155000000Y-80540000D03*
%TO.P,U2,3,SCL*%
%TO.N,Net-(U1-GPIO1)*%
X155000000Y-78000000D03*
%TO.P,U2,4,SDA*%
%TO.N,Net-(U1-GPIO0)*%
X155000000Y-75460000D03*
%TD*%
D15*
%TO.P,SW10,A,A*%
%TO.N,Net-(R6-Pad1)*%
X131500000Y-77900000D03*
D11*
%TO.P,SW10,B,B*%
%TO.N,Net-(R5-Pad1)*%
X131500000Y-82900000D03*
%TO.P,SW10,C,C*%
%TO.N,GND*%
X131500000Y-80400000D03*
D13*
%TO.P,SW10,S1,S1*%
X146000000Y-77900000D03*
%TO.P,SW10,S2,S2*%
%TO.N,Net-(U1-GPIO2)*%
X146000000Y-82900000D03*
D16*
%TO.P,SW10,SH*%
%TO.N,N/C*%
X139000000Y-74800000D03*
X139000000Y-86000000D03*
%TD*%
D13*
%TO.P,R4,2*%
%TO.N,VCC*%
X89800000Y-100250000D03*
%TO.P,R4,1*%
%TO.N,Net-(D4-A)*%
X97420000Y-100250000D03*
%TD*%
%TO.P,R5,1*%
%TO.N,Net-(R5-Pad1)*%
X127000000Y-86300000D03*
%TO.P,R5,2*%
%TO.N,Net-(U1-GPIO3)*%
X119380000Y-86300000D03*
%TD*%
D11*
%TO.P,C1,1*%
%TO.N,Net-(U1-GPIO3)*%
X115000000Y-82000000D03*
%TO.P,C1,2*%
%TO.N,GND*%
X115000000Y-79500000D03*
%TD*%
D17*
%TO.P,U1,40,VBUS*%
%TO.N,unconnected-(U1-VBUS-Pad40)*%
X218000000Y-77000000D03*
%TO.P,U1,39,VSYS*%
%TO.N,unconnected-(U1-VSYS-Pad39)*%
X218000000Y-79540000D03*
D12*
%TO.P,U1,38,GND*%
%TO.N,GND*%
X218000000Y-82080000D03*
D17*
%TO.P,U1,37,3V3_EN*%
%TO.N,unconnected-(U1-3V3_EN-Pad37)*%
X218000000Y-84620000D03*
%TO.P,U1,36,3V3*%
%TO.N,VCC*%
X218000000Y-87160000D03*
%TO.P,U1,35,ADC_VREF*%
%TO.N,unconnected-(U1-ADC_VREF-Pad35)*%
X218000000Y-89700000D03*
%TO.P,U1,34,GPIO28_ADC2*%
%TO.N,unconnected-(U1-GPIO28_ADC2-Pad34)*%
X218000000Y-92240000D03*
D12*
%TO.P,U1,33,AGND*%
%TO.N,GND*%
X218000000Y-94780000D03*
D17*
%TO.P,U1,32,GPIO27_ADC1*%
%TO.N,unconnected-(U1-GPIO27_ADC1-Pad32)*%
X218000000Y-97320000D03*
%TO.P,U1,31,GPIO26_ADC0*%
%TO.N,unconnected-(U1-GPIO26_ADC0-Pad31)*%
X218000000Y-99860000D03*
%TO.P,U1,30,RUN*%
%TO.N,unconnected-(U1-RUN-Pad30)*%
X218000000Y-102400000D03*
%TO.P,U1,29,GPIO22*%
%TO.N,unconnected-(U1-GPIO22-Pad29)*%
X218000000Y-104940000D03*
D12*
%TO.P,U1,28,GND*%
%TO.N,GND*%
X218000000Y-107480000D03*
D17*
%TO.P,U1,27,GPIO21*%
%TO.N,unconnected-(U1-GPIO21-Pad27)*%
X218000000Y-110020000D03*
%TO.P,U1,26,GPIO20*%
%TO.N,unconnected-(U1-GPIO20-Pad26)*%
X218000000Y-112560000D03*
%TO.P,U1,25,GPIO19*%
%TO.N,unconnected-(U1-GPIO19-Pad25)*%
X218000000Y-115100000D03*
%TO.P,U1,24,GPIO18*%
%TO.N,unconnected-(U1-GPIO18-Pad24)*%
X218000000Y-117640000D03*
D12*
%TO.P,U1,23,GND*%
%TO.N,GND*%
X218000000Y-120180000D03*
D17*
%TO.P,U1,22,GPIO17*%
%TO.N,Net-(U1-GPIO17)*%
X218000000Y-122720000D03*
%TO.P,U1,21,GPIO16*%
%TO.N,Net-(U1-GPIO16)*%
X218000000Y-125260000D03*
%TO.P,U1,20,GPIO15*%
%TO.N,Net-(U1-GPIO15)*%
X200220000Y-125260000D03*
%TO.P,U1,19,GPIO14*%
%TO.N,Net-(U1-GPIO14)*%
X200220000Y-122720000D03*
D12*
%TO.P,U1,18,GND*%
%TO.N,GND*%
X200220000Y-120180000D03*
D17*
%TO.P,U1,17,GPIO13*%
%TO.N,Net-(Q1-G)*%
X200220000Y-117640000D03*
%TO.P,U1,16,GPIO12*%
%TO.N,Net-(Q2-G)*%
X200220000Y-115100000D03*
%TO.P,U1,15,GPIO11*%
%TO.N,Net-(Q3-G)*%
X200220000Y-112560000D03*
%TO.P,U1,14,GPIO10*%
%TO.N,Net-(Q4-G)*%
X200220000Y-110020000D03*
D12*
%TO.P,U1,13,GND*%
%TO.N,GND*%
X200220000Y-107480000D03*
D17*
%TO.P,U1,12,GPIO9*%
%TO.N,Net-(U1-GPIO9)*%
X200220000Y-104940000D03*
%TO.P,U1,11,GPIO8*%
%TO.N,Net-(U1-GPIO8)*%
X200220000Y-102400000D03*
%TO.P,U1,10,GPIO7*%
%TO.N,Net-(U1-GPIO7)*%
X200220000Y-99860000D03*
%TO.P,U1,9,GPIO6*%
%TO.N,Net-(U1-GPIO6)*%
X200220000Y-97320000D03*
D12*
%TO.P,U1,8,GND*%
%TO.N,GND*%
X200220000Y-94780000D03*
D17*
%TO.P,U1,7,GPIO5*%
%TO.N,Net-(U1-GPIO5)*%
X200220000Y-92240000D03*
%TO.P,U1,6,GPIO4*%
%TO.N,Net-(U1-GPIO4)*%
X200220000Y-89700000D03*
%TO.P,U1,5,GPIO3*%
%TO.N,Net-(U1-GPIO3)*%
X200220000Y-87160000D03*
%TO.P,U1,4,GPIO2*%
%TO.N,Net-(U1-GPIO2)*%
X200220000Y-84620000D03*
D12*
%TO.P,U1,3,GND*%
%TO.N,GND*%
X200220000Y-82080000D03*
D17*
%TO.P,U1,2,GPIO1*%
%TO.N,Net-(U1-GPIO1)*%
X200220000Y-79540000D03*
%TO.P,U1,1,GPIO0*%
%TO.N,Net-(U1-GPIO0)*%
X200220000Y-77000000D03*
%TD*%
D10*
%TO.P,SW6,1,1*%
%TO.N,GND*%
X140190000Y-116460000D03*
%TO.P,SW6,2,2*%
%TO.N,Net-(U1-GPIO16)*%
X146540000Y-113920000D03*
%TD*%
%TO.P,SW4,1,1*%
%TO.N,GND*%
X178190000Y-97460000D03*
%TO.P,SW4,2,2*%
%TO.N,Net-(U1-GPIO9)*%
X184540000Y-94920000D03*
%TD*%
D18*
X88000000Y-69000000D02*
X220000000Y-69000000D01*
X86000000Y-128000000D02*
X86000000Y-71000000D01*
X220000000Y-130000000D02*
X88000000Y-130000000D01*
X222000000Y-71000000D02*
X222000000Y-128000000D01*
X220000000Y-69000000D02*
G75*
G02*
X222000000Y-71000000I0J-2000000D01*
G01*
X86000000Y-71000000D02*
G75*
G02*
X88000000Y-69000000I2000000J0D01*
G01*
X222000000Y-128000000D02*
G75*
G02*
X220000000Y-130000000I-2000000J0D01*
G01*
X88000000Y-130000000D02*
G75*
G02*
X86000000Y-128000000I0J2000000D01*
G01*
M02*
